<?xml version="1.0" encoding="UTF-8" standalone="no"?>
<!DOCTYPE svg PUBLIC "-//W3C//DTD SVG 1.1//EN" "http://www.w3.org/Graphics/SVG/1.1/DTD/svg11.dtd">
<svg version="1.1" xmlns="http://www.w3.org/2000/svg" xmlns:xlink="http://www.w3.org/1999/xlink" preserveAspectRatio="xMidYMid meet" viewBox="0 0 190 23.91" width="182.77" height="23"><defs><path d="M574.45 384.83C574.45 387.59 576.69 389.83 579.45 389.83C582.21 389.83 584.45 387.59 584.45 384.83C584.45 382.07 582.21 379.83 579.45 379.83C576.69 379.83 574.45 382.07 574.45 384.83ZM554.45 394.83C554.45 397.59 556.69 399.83 559.45 399.83C562.21 399.83 564.45 397.59 564.45 394.83C564.45 392.07 562.21 389.83 559.45 389.83C556.69 389.83 554.45 392.07 554.45 394.83ZM584.45 404.83C584.45 402.07 582.21 399.83 579.45 399.83C576.69 399.83 574.45 402.07 574.45 404.83C574.45 407.59 576.69 409.83 579.45 409.83C582.21 409.83 584.45 407.59 584.45 404.83ZM573.99 387.29C573.09 387.81 565.88 391.97 564.98 392.49C565.28 393.21 565.45 394 565.45 394.83C565.45 395.66 565.28 396.45 564.98 397.17C565.88 397.69 573.09 401.85 573.99 402.37C574.93 400.29 577.01 398.83 579.45 398.83C582.76 398.83 585.45 401.52 585.45 404.83C585.45 408.14 582.76 410.83 579.45 410.83C576.14 410.83 573.45 408.14 573.45 404.83C573.45 404.31 573.54 403.82 573.66 403.34C572.74 402.82 565.41 398.58 564.5 398.05C563.43 399.72 561.58 400.83 559.45 400.83C556.14 400.83 553.45 398.14 553.45 394.83C553.45 391.52 556.14 388.83 559.45 388.83C561.58 388.83 563.43 389.94 564.5 391.61C565.41 391.09 572.74 386.85 573.66 386.32C573.54 385.84 573.45 385.35 573.45 384.83C573.45 381.52 576.14 378.83 579.45 378.83C582.76 378.83 585.45 381.52 585.45 384.83C585.45 388.14 582.76 390.83 579.45 390.83C577.01 390.83 574.93 389.37 573.99 387.29Z" id="a154mWCmwT"></path><path d="M102.91 -52.53C102.91 -50.54 104.52 -48.93 106.5 -48.93C108.48 -48.93 110.09 -50.54 110.09 -52.53C110.09 -54.51 108.48 -56.12 106.5 -56.12C104.52 -56.12 102.91 -54.51 102.91 -52.53ZM102.19 -52.53C102.19 -54.91 104.12 -56.84 106.5 -56.84C108.88 -56.84 110.81 -54.91 110.81 -52.53C110.81 -50.15 108.88 -48.22 106.5 -48.22C104.12 -48.22 102.19 -50.15 102.19 -52.53ZM100.75 -52.53C100.75 -49.35 103.32 -46.78 106.5 -46.78C109.68 -46.78 112.25 -49.35 112.25 -52.53C112.25 -55.71 109.68 -58.28 106.5 -58.28C103.32 -58.28 100.75 -55.71 100.75 -52.53ZM100.03 -52.53C100.03 -56.1 102.93 -59 106.5 -59C110.07 -59 112.97 -56.1 112.97 -52.53C112.97 -48.96 110.07 -46.06 106.5 -46.06C102.93 -46.06 100.03 -48.96 100.03 -52.53ZM114.41 -61.87C114.26 -61.87 113.11 -61.87 112.97 -61.87C112.57 -61.87 112.25 -61.55 112.25 -61.15C112.25 -61.01 112.25 -59.86 112.25 -59.72C112.25 -59.32 112.57 -59 112.97 -59C113.11 -59 114.26 -59 114.41 -59C114.8 -59 115.13 -59.32 115.13 -59.72C115.13 -59.81 115.13 -60.29 115.13 -61.15C114.91 -61.63 114.67 -61.87 114.41 -61.87ZM112.61 -58.28C112.01 -58.28 111.53 -58.76 111.53 -59.36C111.53 -59.57 111.53 -61.3 111.53 -61.51C111.53 -62.11 112.01 -62.59 112.61 -62.59C112.82 -62.59 114.55 -62.59 114.77 -62.59C115.36 -62.59 115.84 -62.11 115.84 -61.51C115.84 -61.3 115.84 -59.57 115.84 -59.36C115.84 -58.76 115.36 -58.28 114.77 -58.28C114.33 -58.28 112.82 -58.28 112.61 -58.28ZM99.31 -43.9C98.12 -43.9 97.16 -44.87 97.16 -46.06C97.16 -46.73 97.16 -50.08 97.16 -56.12C99.03 -56.12 100.07 -56.12 100.28 -56.12C100.15 -55.89 100.02 -55.65 99.92 -55.4C99.78 -55.4 99.1 -55.4 97.88 -55.4C97.88 -49.8 97.88 -46.68 97.88 -46.06C97.88 -45.27 98.52 -44.62 99.31 -44.62C100.75 -44.62 112.25 -44.62 113.69 -44.62C114.48 -44.62 115.13 -45.27 115.13 -46.06C115.13 -46.68 115.13 -49.8 115.13 -55.4C113.9 -55.4 113.22 -55.4 113.08 -55.4C112.98 -55.65 112.85 -55.89 112.72 -56.12C112.93 -56.12 113.97 -56.12 115.84 -56.12C115.84 -50.08 115.84 -46.73 115.84 -46.06C115.84 -44.87 114.88 -43.9 113.69 -43.9C110.81 -43.9 100.75 -43.9 99.31 -43.9ZM113.69 -64.03C112.25 -64.03 100.75 -64.03 99.31 -64.03C97.33 -64.03 95.72 -62.42 95.72 -60.43C95.72 -59 95.72 -47.5 95.72 -46.06C95.72 -44.08 97.33 -42.47 99.31 -42.47C100.75 -42.47 112.25 -42.47 113.69 -42.47C115.67 -42.47 117.28 -44.08 117.28 -46.06C117.28 -47.02 117.28 -51.81 117.28 -60.43C116.21 -62.83 115.01 -64.03 113.69 -64.03ZM99.31 -41.75C96.93 -41.75 95 -43.68 95 -46.06C95 -47.5 95 -59 95 -60.43C95 -62.81 96.93 -64.75 99.31 -64.75C100.75 -64.75 112.25 -64.75 113.69 -64.75C116.07 -64.75 118 -62.81 118 -60.43C118 -59 118 -47.5 118 -46.06C118 -43.68 116.07 -41.75 113.69 -41.75C110.81 -41.75 100.75 -41.75 99.31 -41.75Z" id="b3yDUQJcK0"></path><path d="M394.45 395.83L394.45 403.83L393.45 403.83L393.45 395.83L394.45 395.83ZM396.45 394.83L396.45 404.83L395.45 404.83L395.45 394.83L396.45 394.83ZM398.45 392.83L398.45 404.83L397.45 404.83L397.45 392.83L398.45 392.83ZM400.45 392.83L400.45 404.83L399.45 404.83L399.45 392.83L400.45 392.83ZM402.45 387.83L402.45 404.83L401.45 404.83L401.45 387.83L402.45 387.83ZM404.45 387.83L404.45 404.83L403.45 404.83L403.45 387.83L404.45 387.83ZM406.45 385.83L406.45 404.83L405.45 404.83L405.45 385.83L406.45 385.83ZM419.45 394.83C419.31 394.9 419.16 394.94 419 394.94C418.83 394.94 418.66 394.9 418.51 394.81C418.22 394.65 418.03 394.35 418.01 394.01C417.68 389.42 414.53 385.83 410.84 385.83C410.03 385.83 409.19 386.01 408.42 386.35C408.42 387.52 408.42 393.34 408.42 403.82C415.85 403.83 419.97 403.83 420.8 403.83C422.81 403.83 424.45 401.74 424.45 399.17C424.45 396.59 422.81 394.5 420.8 394.5C420.33 394.5 419.88 394.61 419.45 394.83ZM407.93 404.82C407.65 404.79 407.43 404.5 407.43 404.15C407.43 402.36 407.43 387.97 407.43 386.17C407.43 385.84 407.52 385.67 407.87 385.51C408.77 385.08 409.79 384.83 410.84 384.83C415.12 384.83 418.63 388.83 419 393.94C419.55 393.66 420.16 393.5 420.8 393.5C423.36 393.5 425.44 396.04 425.44 399.17C425.44 402.29 423.36 404.83 420.8 404.83C418.22 404.83 409.21 404.83 407.93 404.82Z" id="bhq0Bug15"></path><path d="M342.66 388.51C340.8 388.17 338.91 387.45 336.71 386.24C336.22 385.97 335.53 385.63 334.87 385.31C334.34 385.04 333.82 384.79 333.35 384.54C333.35 384.92 333.34 386.8 333.34 390.19C333.34 392.31 333.35 393.48 333.35 393.71C333.35 394.15 333.29 394.6 333.18 395.08C332.36 398.45 329.83 400.81 326.71 400.81C325.66 400.81 324.56 400.54 323.58 400.01C321.39 398.84 320.45 396.47 321.23 394.11C322.22 391.11 325.01 388.76 329.77 388.76C330.69 388.76 331.56 388.9 332.35 389.17C332.35 388.84 332.35 387.15 332.35 384.1C330.57 383.52 329.58 383.19 329.38 383.12C328.37 382.92 327.69 382.83 326.81 382.83C325.94 382.83 325.04 382.92 324.08 383.12C317.73 384.41 313.78 389.97 314.58 396.34C315.04 400.01 316.83 402.87 320.03 404.86C322.14 406.17 324.49 406.83 327 406.83C327.86 406.83 328.55 406.75 329.46 406.6C332.67 406.06 335.29 404.55 337.23 402.14C339.19 399.71 340.04 396.91 339.77 393.83C339.66 392.65 340.38 392.17 341 391.98C341.99 391.67 342.86 391.09 343.57 390.26C344.12 389.61 344.36 389.16 344.39 388.68C344.39 388.68 344.38 388.68 344.38 388.68C343.63 388.64 343.06 388.59 342.66 388.51ZM332.11 390.15C331.4 389.9 330.61 389.77 329.77 389.77C326.35 389.77 323.01 391.86 322.16 394.44C321.53 396.34 322.27 398.17 324.03 399.12C324.87 399.57 325.82 399.8 326.71 399.8C329.37 399.8 331.52 397.76 332.22 394.83C332.32 394.44 332.37 394.07 332.36 393.72C332.36 393.49 332.36 392.33 332.36 390.24C332.21 390.19 332.12 390.16 332.11 390.15ZM341.3 392.94C340.84 393.08 340.73 393.31 340.77 393.74C341.07 397.1 340.14 400.12 338.02 402.76C335.87 405.43 333.02 407.01 329.63 407.59C328.67 407.75 327.93 407.83 327 407.83C324.36 407.83 321.84 407.16 319.49 405.7C316.03 403.56 314.08 400.46 313.58 396.47C312.72 389.57 316.93 383.55 323.88 382.14C324.91 381.93 325.86 381.83 326.81 381.83C327.8 381.83 328.57 381.94 329.63 382.15C329.81 382.21 330.72 382.51 332.35 383.04L332.35 382.84L333.33 382.82C333.34 383.17 333.35 383.37 333.35 383.4C334.43 384 336.17 384.8 337.2 385.37C338.97 386.34 340.82 387.16 342.84 387.53C343.35 387.62 343.86 387.68 344.39 387.68C345.08 387.68 345.43 388.04 345.39 388.73C345.35 389.59 344.88 390.28 344.34 390.9C343.52 391.86 342.51 392.56 341.3 392.94Z" id="f4UwnXgmc8"></path><path d="M254.04 404.74C254.27 404.54 254.41 404.25 254.4 403.95C254.4 403.74 254.39 402 254.39 401.78C254.39 401.53 253.76 401.3 253.61 401.12C254.49 401.35 255.49 401.83 255.49 402.83C255.49 404.2 255.5 404.5 255.5 404.82C255.5 404.85 255.5 405.05 255.5 405.07C255.19 405.79 254.71 405.89 254.61 405.89C254.49 405.89 253.57 405.89 253.46 405.88C253.03 405.87 253.52 405.86 253.02 405.86C252.25 405.86 251.99 404.95 252.96 404.95C253.21 404.95 252.68 404.97 252.68 404.97C252.69 404.98 252.74 404.98 252.84 404.99C253.52 404.93 253.92 404.85 254.04 404.74ZM246.95 379.67C245.97 379.69 244.92 379.71 244.2 380.25C244.1 380.13 243.96 380.03 243.8 379.96C243.68 379.91 243.54 379.88 243.41 379.88C243.14 379.88 242.88 379.99 242.68 380.18C242.07 380.78 237.25 385.52 236.65 386.11C236.35 386.4 236.26 386.76 236.42 387.15C236.42 387.17 236.48 387.27 236.49 387.28C234.78 388.96 235.24 391.23 235.25 391.32C235.25 391.74 235.03 401.88 241.21 402.79C241.59 402.86 242.56 403 243.7 403C247.77 403 248.74 401.43 248.95 400.3C248.96 400.24 248.97 400.18 248.97 400.11C248.97 400.05 248.97 399.54 248.97 399.47C249.68 400.08 250.53 400.64 251.44 400.84C249.19 401.15 247.31 402.39 247.27 405.13C247.32 410.39 251.29 410.82 252.15 410.82C252.17 410.82 252.27 410.82 252.45 410.81L255.47 410.83L255.47 410.83C255.57 410.83 255.63 410.83 255.64 410.82C255.93 410.77 262.86 409.36 262.48 397.7C262.76 392.21 261.75 385.91 259.77 384.35C257.79 382.7 254.52 382.76 254.38 382.76C254.08 382.76 251.72 382.76 251.43 382.76C250.86 381.87 249.53 379.73 247 379.67C247 379.67 246.99 379.67 246.98 379.67C246.96 379.67 246.95 379.67 246.95 379.67ZM243.41 385.75L242.17 386.76L237.38 386.76L243.41 380.91L243.41 385.75ZM254.79 392.55C253.69 392.55 253.19 394.54 253.19 394.54C253.46 394.58 254.8 394.76 257.21 395.09C256.33 393.4 255.52 392.55 254.79 392.55ZM250.81 383.79C251.16 383.79 254.02 383.79 254.38 383.79C254.38 383.79 257.39 383.71 259.13 385.15C260.45 386.2 261.77 391.41 261.45 397.69C261.81 408.62 255.47 409.81 255.47 409.81C255.16 409.81 252.71 409.79 252.41 409.78C252.41 409.78 252.32 409.79 252.15 409.79C251.2 409.79 248.35 409.32 248.31 405.14C248.35 401.98 252.32 401.78 253.22 401.78C253.23 401.79 253.3 401.79 253.42 401.79C253.42 403.1 253.43 403.82 253.43 403.96C253.43 403.96 253.3 403.92 252.96 403.92C252.21 403.92 251.37 404.11 251.45 405.32C251.41 406.12 251.61 406.86 252.61 406.86C254.4 406.86 253.23 406.88 254.59 406.89C254.59 406.89 254.61 406.89 254.61 406.89C254.79 406.89 255.97 406.9 256.52 405.39C256.53 405.34 256.53 405.31 256.53 405.29C256.54 405.18 256.52 405.07 256.52 402.83C256.52 400.07 252.48 399.89 252.28 399.89C252.26 399.89 252.14 399.89 252.13 399.89C250.11 399.89 247.98 396.85 247.98 396.85C247.98 396.85 247.94 399.48 247.94 400.11C247.59 401.92 245.44 401.98 243.7 401.98C242.43 401.98 241.38 401.78 241.37 401.78C235.98 401 236.28 391.29 236.28 391.29C236.28 391.29 235.8 389.21 237.43 387.81C237.44 387.79 243.25 387.79 243.25 387.79C243.32 387.71 243.7 387.29 244.37 386.54C244.37 384.1 244.37 382.74 244.37 382.46C244.37 380.92 244.92 380.74 246.98 380.69C249.87 380.77 250.04 383.17 250.81 383.79Z" id="c1I9lkzQck"></path><path d="M581.45 328.83L581.45 329.83L573.45 329.83L573.45 328.83L581.45 328.83ZM560.46 331.67L560.46 333.42C562.31 333.42 563.34 333.42 563.55 333.42C564.72 333.42 564.72 332.85 564.72 332.51C564.72 332.1 564.72 331.67 563.28 331.67C562.9 331.67 561.96 331.67 560.46 331.67ZM559.48 334.38L559.48 330.71C561.76 330.71 563.02 330.71 563.28 330.71C564.54 330.71 565.71 331.02 565.71 332.51C565.71 333.83 564.78 334.38 563.55 334.38C563 334.38 561.65 334.38 559.48 334.38ZM560.46 337.58L560.46 339.96C562.43 339.96 563.53 339.96 563.75 339.96C565.16 339.96 565.27 339.58 565.27 338.95C565.27 338.12 565.04 337.58 563.82 337.58C563.37 337.58 562.25 337.58 560.46 337.58ZM559.48 340.92L559.48 336.62C562.08 336.62 563.53 336.62 563.82 336.62C565.33 336.62 566.26 337.16 566.26 338.77C566.26 340.39 565.15 340.92 563.75 340.92C563.18 340.92 561.75 340.92 559.48 340.92ZM576.59 335.22C576.32 335.22 576.09 335.24 575.88 335.28C575.98 335.28 576.49 335.28 577.42 335.28C577.1 335.24 576.83 335.22 576.59 335.22ZM579.13 335.99C578.61 335.99 574.47 335.99 573.96 335.99C574.1 335.17 574.75 334.26 576.59 334.26C578.14 334.26 578.84 334.41 579.13 335.99ZM573.96 335.99C573.95 336.08 573.93 336.16 573.93 336.24C573.93 336.23 573.93 336.14 573.93 335.99C573.95 335.99 573.96 335.99 573.96 335.99ZM575.07 338.87C575.33 339.74 575.9 340.19 576.79 340.19C577.65 340.19 578.42 339.42 578.5 339.15C578.53 339.05 578.57 338.95 578.63 338.87C577.92 338.87 575.42 338.87 575.07 338.87ZM573.93 337.91C574.77 337.91 581.49 337.91 582.33 337.91C582.55 334.42 580.64 331.91 576.68 331.91C573.14 331.91 570.7 334.5 570.7 337.9C570.7 341.41 573.01 343.87 576.68 343.87C579.31 343.87 581.66 341.56 582.56 338.88C582.28 338.88 580.03 338.88 579.75 338.88C579.54 339.59 579.02 341.11 576.79 341.11C575.01 341.11 574.02 339.88 573.93 337.91ZM569.13 331.77C569.13 328.85 567.06 327.79 564 327.79C563.49 327.79 560.97 327.79 556.43 327.79L556.43 343.77C561.1 343.77 563.7 343.77 564.22 343.77C567.13 343.77 569.89 342.2 569.89 339.02C569.89 337.07 568.9 335.59 566.94 335.05C568.34 334.39 569.13 333.31 569.13 331.77ZM583.05 338.85C583.24 339.1 583.29 339.42 583.19 339.71C582.18 342.72 579.81 344.83 576.68 344.83C573.76 344.83 571.51 343.46 570.43 341.21C569.5 343.26 567.24 344.73 564.22 344.73C563.44 344.73 557.21 344.73 556.43 344.73C555.89 344.73 555.45 344.3 555.45 343.77C555.45 342.18 555.45 329.39 555.45 327.79C555.45 327.26 555.89 326.83 556.43 326.83C557.18 326.83 563.24 326.83 564 326.83C569.32 326.83 570.11 329.93 570.11 331.77C570.11 333.02 569.69 334.07 568.87 334.88C569.3 335.18 569.66 335.54 569.96 335.95C570.74 332.96 573.33 330.95 576.68 330.95C578.66 330.95 580.34 331.6 581.52 332.83C582.82 334.17 583.45 335.75 583.31 337.97C583.29 338.26 583.13 338.52 582.9 338.68C582.96 338.73 583.01 338.79 583.05 338.85Z" id="bwriJ8kGh"></path><path d="M503.59 361.06C504.11 362.44 504.63 363.87 505.31 365.02C506.94 367.82 511.07 368.12 512.77 368.12C513.69 368.12 514.57 368.02 515.36 367.8C518.07 367.06 519.44 365.63 519.44 363.54C519.44 360.22 516.37 359.27 513.89 358.51C511.62 357.82 510.23 357.33 510.23 356.05C510.23 354.39 512.26 353.72 512.8 353.64C514.19 353.42 516.16 353.99 516.93 355.53C517.17 355.46 519.09 354.86 519.33 354.78C518.14 351.88 514.92 350.8 512.43 351.19C509.72 351.6 507.83 353.6 507.83 356.05C507.83 359.01 510.23 359.98 513.14 360.87C515.5 361.59 516.95 362.11 516.95 363.54C516.95 364.27 516.56 365.25 514.71 365.75C514.1 365.92 513.45 366 512.75 366C510.4 366 508.23 365.09 507.47 363.79C506.92 362.84 506.44 361.56 505.94 360.2C504.51 356.37 502.56 351.13 497.07 351.13C493.58 351.13 489.43 352.74 489.43 360.39C489.43 363.34 491.47 368.01 496.96 368.01C498.79 368.01 501.11 367.73 502.04 366.44C501.93 366.23 501.06 364.51 500.96 364.29C500.29 364.94 498.94 365.91 496.96 365.91C492.14 365.91 491.93 360.45 491.93 360.39C491.93 355.7 493.51 353.6 497.07 353.6C500.54 353.6 501.96 356.69 503.59 361.06ZM504.48 365.53C503.76 364.3 503.21 362.83 502.69 361.41C501.11 357.17 499.94 354.6 497.07 354.6C494.11 354.6 492.9 356.28 492.9 360.39C492.9 360.56 493.09 364.91 496.96 364.91C499.38 364.91 500.67 363.16 500.69 363.14C500.79 363 500.95 362.93 501.12 362.94C501.28 362.95 501.43 363.05 501.51 363.2C501.66 363.5 502.86 365.94 503.02 366.24C503.1 366.39 503.1 366.58 503.01 366.72C502.13 368.25 500.11 369.01 496.96 369.01C491.44 369.01 488.46 364.57 488.46 360.39C488.46 357.31 489.3 350.13 497.07 350.13C503.23 350.13 505.32 355.75 506.84 359.85C507.33 361.16 507.79 362.4 508.3 363.27C508.88 364.26 510.79 365 512.75 365C513.36 365 513.94 364.93 514.46 364.79C515.47 364.52 515.98 364.1 515.98 363.54C515.98 362.95 515.28 362.56 512.86 361.83C510.47 361.1 506.86 359.99 506.86 356.05C506.86 353.09 509.09 350.69 512.29 350.2C512.66 350.15 513.04 350.12 513.42 350.12C516.16 350.12 519.39 351.62 520.42 354.96C520.46 355.08 520.45 355.22 520.39 355.34C520.33 355.46 520.22 355.54 520.1 355.58C519.76 355.68 517.12 356.51 516.79 356.61C516.53 356.69 516.27 356.54 516.19 356.28C515.78 354.96 514.05 354.45 512.95 354.62C512.93 354.62 511.2 355.04 511.2 356.05C511.2 356.51 511.92 356.87 514.16 357.55C516.66 358.32 520.41 359.47 520.41 363.54C520.41 365.33 519.58 367.68 515.61 368.76C514.73 369 513.78 369.12 512.77 369.12C510.9 369.12 506.36 368.77 504.48 365.53Z" id="hEHlFC8uL"></path><path d="M79.79 -23.3L82.86 -15.64L84.39 -21.77L95.13 -30.97L79.79 -23.3Z" id="f1AjcoEomB"></path><path d="M326.69 325.8C322.95 328.3 322.76 334 322.82 336.01C321.11 339.13 320.2 339.83 317.08 340.54C316.63 340.64 316.32 341.04 316.32 341.5C316.32 341.72 316.32 341.72 318.32 346.19C318.49 346.55 318.84 346.77 319.22 346.77C319.32 346.77 319.42 346.75 319.52 346.72C323.38 345.5 326.09 343.72 328.45 340.82C331.21 341.79 332.51 343.41 334.1 346.29C334.27 346.6 334.6 346.8 334.96 346.8C334.96 346.8 335.02 346.8 335.03 346.79C335.24 346.78 335.44 346.69 335.6 346.56C335.62 346.55 335.81 346.39 335.84 346.37C339.55 343.47 339.55 343.37 339.55 342.8C339.55 342.65 339.52 342.51 339.45 342.37C337.81 338.91 335.42 336.96 333.11 335.6C333.12 335.6 333.2 335.6 333.21 335.6C337.1 335.6 339.87 332.77 339.99 332.65C340.29 332.33 340.35 331.86 340.14 331.48C339.97 331.18 338.49 328.57 338.08 327.95C337.91 327.7 337.65 327.54 337.35 327.51C337.34 327.51 337.27 327.51 337.26 327.51C337 327.51 336.75 327.61 336.56 327.79C335.65 328.71 334.2 329.12 333.17 329.12C332.88 329.12 332.71 329.08 332.64 329.06C332.47 329.02 332.43 328.97 332.43 328.97C332.41 328.95 332.39 328.87 332.45 328.58C332.52 328.26 332.42 327.93 332.18 327.69C331.97 327.48 327.53 325.64 327.23 325.64C327.04 325.64 326.85 325.69 326.69 325.8ZM327.1 320.76C327.1 323.51 329.32 325.75 332.04 325.75C334.76 325.75 336.98 323.51 336.98 320.76C336.98 318.01 334.76 315.77 332.04 315.77C329.32 315.77 327.1 318.01 327.1 320.76ZM331.49 328.39C331.41 328.75 331.23 329.71 332.39 330.02C332.6 330.07 332.87 330.1 333.17 330.1C334.35 330.1 336.09 329.66 337.26 328.49C337.66 329.1 339.28 331.96 339.28 331.96C339.28 331.96 336.73 334.61 333.21 334.61C332.68 334.61 332.13 334.55 331.56 334.41C331.55 334.56 331.49 335.68 331.49 335.82C334.42 337.37 336.91 339.3 338.57 342.8C338.57 343.03 334.96 345.8 334.96 345.81C333.2 342.62 331.66 340.72 328.1 339.68C326.18 342.2 323.73 344.36 319.22 345.78C319.03 345.36 317.49 341.93 317.3 341.5C320.92 340.67 321.97 339.66 323.81 336.25C323.81 336.03 323.34 329.23 327.23 326.62C327.24 326.62 331.44 328.34 331.49 328.39ZM336 320.76C336 322.97 334.23 324.76 332.04 324.76C329.86 324.76 328.09 322.97 328.09 320.76C328.09 318.55 329.86 316.75 332.04 316.75C334.23 316.75 336 318.55 336 320.76Z" id="b24hQnWvEa"></path><path d="M248.46 345.83L248.46 339.99L245.15 337.52L245.72 336.76L248.46 338.8L248.46 333.84L249.47 333.84L249.47 337.07L252.14 335.39L252.64 336.2L249.47 338.19L249.47 340.41L254.63 337.86L255.05 338.71L249.47 341.46L249.47 345.83L261.92 345.83L249.45 317.32L236.98 345.83L248.46 345.83ZM248.46 346.83L235.45 346.83L249.45 314.83L263.45 346.83L249.47 346.83L248.46 346.83Z" id="d5zI3PbUS"></path><path d="M565.95 277.88C565.79 278.09 565.65 278.27 565.53 278.4C565.48 278.46 565.1 278.87 565.05 278.92C562.74 281.39 562.06 282.32 562.04 283.05C562 284.19 563.13 285.08 565.94 286.1C567.28 286.59 568.32 286.83 569.12 286.83C570.7 286.83 571.32 285.86 571.37 284.95C571.44 283.72 571.4 280.8 571.38 279.4C571.38 279.34 571.38 278.81 571.38 278.74C571.38 276.14 570.08 275.63 569.3 275.55C569.29 275.55 569.23 275.55 569.12 275.54C567.56 276.41 566.5 277.19 565.95 277.88ZM572.8 274.53C571.95 275.44 572.05 276.75 573.1 278.43C573.7 279.39 575.73 282.42 576.03 282.88C576.2 283.22 576.84 284.28 578.01 284.28C579.65 284.28 581.65 281.57 581.67 281.54C583.15 279.51 583.32 278.62 583.32 278.13C583.32 276.75 582.16 276.34 581.23 276.02C581.16 276 580.6 275.77 580.53 275.74C578.97 275.12 576.06 273.97 574.36 273.97C573.67 273.97 573.14 274.16 572.8 274.53ZM559.69 268.39C558.4 268.51 557.68 270.13 557.54 273.19C557.45 275.06 557.74 276.31 558.44 277.03C558.83 277.44 559.35 277.66 559.92 277.66C560.34 277.66 560.69 277.54 560.86 277.46C561.43 277.28 565.52 275.98 566.4 275.67C567.26 275.35 568.87 274.77 568.87 273.23C568.87 272.28 567.82 271.32 565.74 270.39C564.32 269.78 560.92 268.38 559.84 268.38C559.81 268.39 559.7 268.39 559.69 268.39ZM578.3 263.35C578.29 263.35 578.29 263.35 578.29 263.35C576.88 263.35 573.35 268.15 572.58 269.72C572.22 270.45 571.82 271.44 572.4 272.21C572.89 272.87 573.51 273.14 574.36 273.14C574.84 273.14 575.39 273.03 576.06 272.9C576.07 272.9 576.14 272.89 576.15 272.88C581.27 271.91 583.22 271.02 583.33 269.61C583.45 268.2 581.58 265.69 580.56 264.58C579.69 263.65 578.98 263.35 578.32 263.35C578.31 263.35 578.31 263.35 578.3 263.35ZM564.93 256.42C560.51 257.85 560.44 259.13 560.42 259.56C560.4 259.86 560.37 260.51 564.03 265.45C567.78 270.51 568.39 270.56 568.83 270.59C568.85 270.59 569.01 270.59 569.03 270.59C570.38 270.59 571.32 269.58 571.32 268.14C571.32 268.05 571.34 267.32 571.34 267.22C571.57 257.95 571.17 256.87 570.58 256.36C570.15 256 569.53 255.83 568.62 255.83C567.22 255.83 565.5 256.24 564.93 256.42ZM569.21 276.5C570.45 276.63 570.41 278.26 570.41 278.74C570.41 279.21 570.49 283.4 570.41 284.89C570.37 285.61 569.85 285.87 569.12 285.87C568.32 285.87 567.26 285.56 566.27 285.2C564.37 284.51 562.99 283.77 563.01 283.07C563.03 282.38 565.59 279.78 566.25 279.04C566.89 278.32 568.07 276.5 569.12 276.5C569.14 276.5 569.2 276.5 569.21 276.5ZM580.91 276.92C581.9 277.27 582.35 277.47 582.35 278.13C582.35 278.78 581.61 279.99 580.89 280.99C580.16 281.99 578.74 283.32 578.01 283.32C577.29 283.32 576.88 282.4 576.88 282.4C576.88 282.4 574.56 278.95 573.92 277.92C573.28 276.9 572.91 275.83 573.51 275.18C573.68 275 573.97 274.93 574.36 274.93C576.21 274.93 580.09 276.63 580.91 276.92ZM565.34 271.27C565.34 271.27 567.9 272.41 567.9 273.23C567.9 274.05 566.97 274.44 566.07 274.77C565.16 275.09 560.51 276.57 560.51 276.57C560.51 276.57 560.25 276.7 559.92 276.7C559.28 276.7 558.37 276.2 558.5 273.23C558.58 271.64 558.91 269.42 559.78 269.34C559.78 269.34 559.8 269.34 559.84 269.34C562.77 270.37 564.6 271.02 565.34 271.27ZM582.37 269.53C582.26 270.76 577.39 271.66 575.88 271.94C575.24 272.07 574.75 272.15 574.36 272.15C573.84 272.15 573.49 272 573.17 271.57C572.29 270.39 577.62 264.07 578.32 264.04C579.54 264.04 582.47 268.3 582.37 269.53ZM569.94 257.09C570.73 257.76 570.35 267.16 570.35 268.14C570.35 269.07 569.81 269.63 569.03 269.63C569.02 269.63 568.92 269.63 568.91 269.63C568.06 269.57 561.34 260.38 561.39 259.6C561.43 258.83 563.43 257.92 565.23 257.33C565.8 257.15 567.41 256.79 568.62 256.79C569.2 256.79 569.69 256.87 569.94 257.09Z" id="akv9gQHAh"></path><path d="M483.46 264.85C483.46 265.82 483.46 273.57 483.46 274.53C483.46 275.72 482.09 276.65 480.91 276.65C479.65 276.65 478.47 275.66 478.47 274.53C478.47 274.28 478.47 273.03 478.47 270.78L474.5 270.78C474.5 273.07 474.5 274.34 474.5 274.59C474.5 278.01 477.37 280.79 480.89 280.79C484.48 280.79 487.47 277.99 487.52 274.68C487.52 273.73 487.52 266.06 487.52 265.1C487.52 263.82 488.33 262.99 489.45 262.99C490.59 262.99 491.38 263.85 491.38 265.1C491.38 265.22 491.37 265.82 491.36 266.9L493.27 268.35L495.34 266.95C495.35 265.7 495.36 265 495.36 264.86C495.25 261.34 492.85 258.87 489.53 258.87C486.19 258.87 483.59 261.44 483.46 264.85ZM490.3 267.41C490.32 266.02 490.33 265.25 490.33 265.09C490.33 264.58 490.1 264.03 489.45 264.03C488.8 264.03 488.58 264.61 488.58 265.1C488.58 266.06 488.57 273.74 488.57 274.69C488.51 278.56 485.04 281.83 480.89 281.83C476.79 281.83 473.45 278.58 473.45 274.59C473.45 274.27 473.45 272.65 473.45 269.74L479.52 269.74C479.52 272.62 479.52 274.22 479.52 274.53C479.52 275.07 480.25 275.6 480.91 275.6C481.55 275.6 482.41 275.07 482.41 274.53C482.41 273.56 482.41 265.8 482.41 264.83C482.55 260.83 485.61 257.83 489.53 257.83C493.39 257.83 496.28 260.78 496.41 264.85C496.41 265.03 496.4 265.91 496.38 267.5L493.23 269.64L490.3 267.41ZM500.45 270.8C500.45 273.16 500.45 274.47 500.45 274.73C500.45 275.88 499.21 276.9 497.99 276.9C496.81 276.9 495.38 275.93 495.38 274.73C495.38 274.47 495.38 273.17 495.38 270.83L493.19 272.39L491.36 270.99C491.36 273.19 491.36 274.41 491.36 274.65C491.39 277.97 494.43 280.79 498.01 280.79C501.53 280.79 504.4 278.01 504.4 274.59C504.4 274.34 504.4 273.08 504.4 270.8L500.45 270.8ZM490.3 274.65C490.3 274.27 490.3 272.34 490.3 268.87L493.21 271.09L496.43 268.8C496.43 272.36 496.43 274.34 496.43 274.73C496.43 275.23 497.29 275.86 497.99 275.86C498.62 275.86 499.4 275.3 499.4 274.73C499.4 274.4 499.4 272.75 499.4 269.76L505.45 269.76C505.45 272.66 505.45 274.27 505.45 274.59C505.45 278.58 502.11 281.83 498.01 281.83C493.87 281.83 490.34 278.54 490.3 274.65Z" id="asPpEtEkw"></path><path d="M421.95 279.83C422.05 279.83 422.85 279.83 422.95 279.83C423.23 279.83 423.45 279.61 423.45 279.33C423.45 279.23 423.45 278.43 423.45 278.33C423.45 278.05 423.23 277.83 422.95 277.83C422.85 277.83 422.05 277.83 421.95 277.83C421.67 277.83 421.45 278.05 421.45 278.33C421.45 278.4 421.45 278.73 421.45 279.33C421.59 279.67 421.76 279.83 421.95 279.83ZM422.95 276.83C423.78 276.83 424.45 277.5 424.45 278.33C424.45 278.43 424.45 279.23 424.45 279.33C424.45 280.16 423.78 280.83 422.95 280.83C422.85 280.83 422.05 280.83 421.95 280.83C421.12 280.83 420.45 280.16 420.45 279.33C420.45 279.23 420.45 278.43 420.45 278.33C420.45 277.5 421.12 276.83 421.95 276.83C422.15 276.83 422.85 276.83 422.95 276.83ZM409.01 266.57L409.65 266.92C411.15 266.99 411.98 267.03 412.15 267.03C412.15 267.03 412.33 267.67 411.86 268.01C411.4 268.35 407.26 271.85 407.26 271.85C406.73 271.16 402.53 265.64 402.01 264.95C402.01 264.95 402.13 264.78 402.89 264.78C403.06 264.78 403.94 264.78 405.51 264.78L405.51 262.83L394.45 262.83L394.45 264.77C395.42 264.77 395.96 264.77 396.07 264.77C396.83 264.77 397.7 265.49 398.46 266.23C399.22 266.98 404.52 273.17 404.52 273.17C404.51 273.66 404.48 277.55 404.48 278.03C404.48 278.03 404.11 278.71 402.59 278.71C401.08 278.71 400.5 278.8 400.5 278.8C400.5 278.87 400.5 279.19 400.5 279.77L412.5 279.77C412.5 279.41 412.5 279.21 412.5 279.16C412.5 279.16 412.15 278.76 411.86 278.76C411.57 278.76 409.3 278.76 409.02 278.76C408.67 278.76 408.55 278.35 408.55 277.84C408.55 277.55 408.55 276.09 408.55 273.46C412.6 269.95 414.85 268 415.3 267.61C415.3 267.61 416.35 266.98 417.11 266.98C417.16 266.98 417.4 266.98 417.85 266.98L418.5 265.82L408.89 265.82L409.01 266.57ZM417.85 267.98C417.77 267.98 417.18 267.98 417.11 267.98C416.82 267.98 416.24 268.22 415.89 268.42C415.47 268.79 413.36 270.62 409.56 273.92L409.56 277.76C410.94 277.76 411.7 277.76 411.86 277.76C412.54 277.76 413.07 278.28 413.26 278.51C413.42 278.69 413.51 278.92 413.51 279.16C413.51 279.23 413.51 279.71 413.51 279.77C413.51 280.33 413.06 280.77 412.5 280.77C411.3 280.77 401.7 280.77 400.5 280.77C399.94 280.77 399.49 280.33 399.49 279.77C399.49 279.68 399.49 278.9 399.49 278.8C399.49 278.3 399.86 277.88 400.35 277.81C400.42 277.8 401.05 277.71 402.59 277.71C403.05 277.71 403.33 277.64 403.48 277.57C403.48 277.17 403.5 273.95 403.51 273.54C401.9 271.65 398.32 267.5 397.75 266.94C396.65 265.86 396.19 265.77 396.07 265.77C395.91 265.77 394.61 265.77 394.45 265.77C393.89 265.77 393.44 265.33 393.44 264.77C393.44 264.58 393.44 263.03 393.44 262.83C393.44 262.28 393.89 261.83 394.45 261.83C395.55 261.83 404.4 261.83 405.51 261.83C406.07 261.83 406.52 262.28 406.52 262.83C406.52 263.03 406.52 264.59 406.52 264.78C406.52 265.33 406.07 265.78 405.51 265.78C405.4 265.78 404.86 265.78 403.9 265.78C406.01 268.56 407.18 270.11 407.42 270.41C408.24 269.71 409.48 268.66 410.34 267.95C410.26 267.95 409.67 267.93 409.6 267.92C409.45 267.91 409.3 267.87 409.17 267.8C409.1 267.77 408.58 267.49 408.52 267.45C408.25 267.3 408.06 267.03 408.01 266.72C408 266.65 407.91 266.05 407.9 265.97C407.85 265.68 407.94 265.39 408.13 265.17C408.32 264.94 408.6 264.82 408.89 264.82C409.85 264.82 417.54 264.82 418.5 264.82C418.85 264.82 419.18 265 419.36 265.31C419.54 265.61 419.55 265.99 419.38 266.3C419.33 266.38 419.12 266.77 418.73 267.46C418.39 267.81 418.09 267.98 417.85 267.98ZM421.41 274.76L423.43 274.88L424.44 264.17L421.47 263.79L421.41 274.76ZM424.4 275.13C424.28 275.57 423.88 275.88 423.43 275.88C423.42 275.88 423.4 275.88 423.37 275.87C422.16 275.81 421.49 275.77 421.36 275.76C420.82 275.73 420.41 275.29 420.41 274.76C420.41 273.67 420.46 264.88 420.47 263.78C420.47 263.51 420.59 263.24 420.79 263.06C420.98 262.88 421.22 262.79 421.47 262.79C421.47 262.79 421.5 262.79 421.55 262.79C423.32 263.02 424.31 263.15 424.51 263.17C424.81 263.19 425.09 263.34 425.26 263.58C425.43 263.82 425.49 264.13 425.41 264.42C425.21 266.57 424.5 274.06 424.4 275.13Z" id="b2UNTGw8T"></path><path d="M322.43 272.19C322.43 271.32 323.14 270.61 324.02 270.61C324.9 270.61 325.62 271.32 325.62 272.19C325.62 273.07 324.9 273.78 324.02 273.78C323.14 273.78 322.43 273.07 322.43 272.19ZM332.23 272.19C332.23 271.32 332.94 270.61 333.82 270.61C334.71 270.61 335.42 271.32 335.42 272.19C335.42 273.07 334.71 273.78 333.82 273.78C332.94 273.78 332.23 273.07 332.23 272.19ZM323.53 277.58C323.39 277.43 323.34 277.23 323.41 277.05C323.47 276.92 323.6 276.78 323.81 276.78C323.95 276.78 324.11 276.85 324.26 276.96C325.09 277.79 326.77 278.28 328.82 278.28C330.94 278.28 332.85 277.74 333.7 276.91C333.82 276.82 333.95 276.76 334.06 276.76C334.27 276.76 334.37 276.95 334.39 277C334.46 277.18 334.46 277.43 334.25 277.64C333.48 278.58 331.5 279.17 329.17 279.17C326.78 279.17 324.62 278.56 323.53 277.58ZM336.73 260.9C336.73 262.11 337.75 263.1 339.01 263.1C340.27 263.1 341.29 262.11 341.29 260.9C341.29 259.68 340.27 258.69 339.01 258.69C337.75 258.69 336.73 259.68 336.73 260.9ZM338.97 267.31C338.95 267.33 338.86 267.4 338.71 267.53C338.87 267.67 338.96 267.74 338.98 267.75C340.23 268.76 341.18 269.94 341.79 271.25C341.8 271.27 341.84 271.37 341.93 271.54C342.09 271.44 342.18 271.39 342.2 271.37C342.69 271.07 343.26 270.45 343.26 269.2C343.25 267.73 341.8 266.86 340.76 266.8C340.74 266.8 340.67 266.8 340.53 266.79C339.77 266.91 339.25 267.08 338.97 267.31ZM314.63 269.19C314.61 270.59 315.23 271.11 315.7 271.38C315.72 271.4 315.82 271.46 316.01 271.56C316.07 271.36 316.11 271.25 316.12 271.22C316.5 270.01 318.2 268.15 318.84 267.79C318.86 267.78 318.96 267.73 319.14 267.62C319.01 267.47 318.93 267.38 318.92 267.36C318.59 266.98 317.81 266.81 317.18 266.81C317.17 266.81 317.13 266.81 317.07 266.81C315.44 267.49 314.63 268.29 314.63 269.19ZM316.78 273.74C316.78 278.2 322.26 281.83 328.99 281.83C335.73 281.83 341.21 278.2 341.21 273.74C341.21 269.27 335.73 265.64 328.99 265.64C322.26 265.64 316.78 269.27 316.78 273.74ZM315.57 273.76C315.57 273.44 315.61 273.09 315.67 272.7C315.67 272.69 315.68 272.62 315.71 272.5C315.59 272.44 315.53 272.41 315.52 272.4C315.23 272.26 313.78 271.47 313.5 269.81C313.42 268.69 313.71 267.86 314.51 266.96C315.24 266.3 316.13 265.94 317.28 265.86C318.82 265.87 319.81 266.83 319.85 266.87C319.86 266.89 319.91 266.94 320.01 267.03C320.12 266.96 320.18 266.92 320.2 266.91C322.5 265.56 325.32 264.8 328.37 264.71C328.39 264.71 328.48 264.71 328.65 264.7C328.64 264.54 328.64 264.44 328.64 264.42C328.63 263.69 328.71 261.17 330.1 259.77C330.73 259.13 331.56 258.81 332.57 258.81C332.78 258.81 332.99 258.83 333.22 258.85C334.62 259.04 335.56 259.5 335.82 259.64C335.83 259.65 335.92 259.7 336.07 259.78C336.15 259.63 336.2 259.55 336.21 259.53C336.77 258.48 337.85 257.83 339.04 257.83C340.81 257.83 342.25 259.24 342.25 260.98C342.25 262.71 340.81 264.13 339.04 264.13C337.27 264.13 335.83 262.71 335.83 260.98C335.83 260.97 335.84 260.92 335.85 260.82L335.86 260.65C335.76 260.6 335.71 260.57 335.7 260.56C335.2 260.27 334.2 259.79 333.25 259.78C333.1 259.75 332.92 259.74 332.74 259.74C331.95 259.74 331.3 260 330.79 260.52C329.64 261.7 329.62 263.85 329.65 264.48C329.65 264.5 329.65 264.59 329.65 264.74C329.81 264.76 329.9 264.76 329.92 264.76C332.83 264.9 335.49 265.64 337.63 266.89C337.64 266.9 337.7 266.93 337.8 266.99C337.89 266.92 337.94 266.88 337.95 266.87C338.92 266.13 339.26 265.91 340.59 265.85C341.87 265.85 342.9 266.54 343.3 266.96C343.92 267.6 344.4 268.23 344.33 269.84C344.19 271.26 342.66 272.22 342.36 272.4C342.37 272.41 342.42 272.46 342.51 272.53C342.32 272.61 342.21 272.65 342.19 272.65C342.27 273.07 342.3 273.43 342.3 273.76C342.3 278.76 336.31 282.83 328.94 282.83C321.57 282.83 315.57 278.76 315.57 273.76Z" id="bb8zwuje0"></path><path d="M73.61 -27.49L79.04 -24.79L83.08 -23.45L92.52 -15.36L96.61 -35.57L73.61 -27.49Z" id="e2hpkpaShI"></path><path d="M250.63 264.84C250.52 265.22 250.64 265.63 250.95 265.88C251.13 266.04 251.37 266.12 251.6 266.12C251.75 266.12 251.9 266.09 252.03 266.03C252.55 265.79 253.18 265.64 253.68 265.64C254.58 265.64 254.69 266.06 254.73 266.48C254.88 268.25 252.12 272.75 250.98 273.45C250.37 272.68 249.43 269.38 248.82 264.73C248.52 262.46 247.9 257.74 243.8 257.74C241.24 257.74 238.48 260.2 236.04 262.38C235.27 263.06 234.55 263.71 233.91 264.21C233.47 264.54 233.39 265.16 233.72 265.6C233.85 265.79 234.94 267.26 235.08 267.44C235.25 267.66 235.49 267.81 235.76 267.84C235.77 267.85 235.88 267.85 235.9 267.85C236.12 267.85 236.34 267.78 236.52 267.64C237.18 267.13 237.99 266.63 238.36 266.49C239.32 267.26 240.69 272.49 241.14 274.25C241.31 274.9 241.46 275.48 241.59 275.93C241.61 276.03 241.83 276.83 241.86 276.92C242.63 279.87 243.93 284.8 248.07 284.8C255.07 284.8 265.36 268.96 265.36 263.98C265.36 258.06 262.25 256.82 259.64 256.82C255.42 256.82 252.05 259.82 250.63 264.84ZM264.34 263.98C264.34 268.86 254.2 283.79 248.07 283.79C244.28 283.79 243.34 278.35 242.57 275.66C241.8 272.97 240.29 265.91 238.52 265.46C238.51 265.46 238.45 265.46 238.44 265.45C237.7 265.45 235.9 266.84 235.9 266.84C235.76 266.66 234.66 265.19 234.53 265C237.15 262.96 240.89 258.75 243.8 258.75C246.7 258.75 247.41 261.83 247.81 264.86C248.21 267.89 249.35 274.52 250.89 274.52C252.43 274.52 255.94 268.66 255.74 266.39C255.62 265.06 254.7 264.63 253.68 264.63C252.96 264.63 252.18 264.85 251.6 265.12C252.89 260.58 255.85 257.83 259.64 257.83C263.43 257.83 264.34 260.78 264.34 263.98Z" id="b3a2G0zIFD"></path><path d="M475.45 200.83C475.45 204.14 478.14 206.83 481.45 206.83C484.76 206.83 487.45 204.14 487.45 200.83C487.45 197.52 484.76 194.83 481.45 194.83C478.14 194.83 475.45 197.52 475.45 200.83ZM474.45 200.83C474.45 196.96 477.58 193.83 481.45 193.83C485.32 193.83 488.45 196.96 488.45 200.83C488.45 204.7 485.32 207.83 481.45 207.83C477.58 207.83 474.45 204.7 474.45 200.83ZM491.45 200.83C491.45 204.14 494.14 206.83 497.45 206.83C500.76 206.83 503.45 204.14 503.45 200.83C503.45 197.52 500.76 194.83 497.45 194.83C494.14 194.83 491.45 197.52 491.45 200.83ZM490.45 200.83C490.45 196.96 493.58 193.83 497.45 193.83C501.32 193.83 504.45 196.96 504.45 200.83C504.45 204.7 501.32 207.83 497.45 207.83C493.58 207.83 490.45 204.7 490.45 200.83Z" id="a2fcP58c9"></path><path d="M68.95 -31.11C68.86 -31.4 68.4 -32.85 67.58 -35.47L66.26 -35.47C66.26 -46.45 66.26 -52.55 66.26 -53.77C72.58 -53.77 77.76 -48.54 77.76 -42.22C77.76 -36.83 73.98 -32.32 68.95 -31.11Z" id="a1xGDBWODS"></path><path d="M67.63 -10.44C67.53 -10.73 67.08 -12.19 66.25 -14.81L63.61 -14.81C62.81 -12.19 62.37 -10.73 62.28 -10.44C57.25 -11.65 53.43 -16.17 53.43 -21.56C53.43 -27.88 58.61 -33.1 64.93 -33.1C71.25 -33.1 76.43 -27.88 76.43 -21.56C76.43 -16.17 72.65 -11.65 67.63 -10.44Z" id="e6yevRJD9"></path><path d="M69.1 -61.81L75.28 -58.75L79.88 -57.21L90.62 -48.01L95.27 -71.01L69.1 -61.81Z" id="a2LJnKxEP6"></path><path d="M82.81 -66.24L85.87 -58.57L87.41 -64.7L98.14 -73.9L82.81 -66.24Z" id="d3aLrtajlD"></path><path d="M81.26 -58.87C81.26 -59 81.26 -60.08 81.26 -60.22C83.86 -60.22 86.03 -62.33 86.03 -64.93C86.03 -67.53 83.86 -69.65 81.26 -69.65C81.26 -69.79 81.26 -70.86 81.26 -71C84.61 -71 87.37 -68.28 87.37 -64.93C87.37 -61.59 84.61 -58.87 81.26 -58.87Z" id="dy2GSoQIa"></path><path d="M132.18 -52.49C131.49 -51.98 131.15 -51.23 131.07 -50.05C131.04 -49.51 131.11 -48.97 131.3 -48.43C131.43 -48.06 131.44 -47.69 131.34 -47.24C131.27 -46.95 130.73 -44.62 130.67 -44.33C130.42 -43.21 130.16 -42.11 129.91 -41C129.55 -39.48 129.63 -37.97 129.78 -36.67C130.92 -38.26 131.62 -39.85 131.94 -41.47C132.04 -41.97 132.16 -42.46 132.3 -42.96C132.31 -43 132.41 -43.39 132.42 -43.44C132.51 -43.89 132.73 -43.97 132.9 -43.97C133.09 -43.97 133.24 -43.84 133.33 -43.74C134.35 -42.61 135.62 -42.32 137.43 -42.82C138.62 -43.14 139.48 -43.76 140.24 -44.84C141.77 -46.98 142.22 -49.38 141.79 -51.98C141.35 -54.56 140.01 -56.38 137.46 -57.25C134.25 -58.34 131.26 -57.74 128.69 -55.49C127.43 -54.4 126.65 -52.92 126.36 -51.09C126.36 -51.08 126.34 -50.99 126.31 -50.84L126.29 -50.72L126.3 -49.44C126.33 -49.25 126.35 -49.14 126.36 -49.12C126.46 -48.6 126.55 -48.11 126.75 -47.65C127.12 -46.76 127.65 -46.15 128.36 -45.77C128.56 -45.67 128.64 -45.66 128.67 -45.66C128.67 -45.66 128.72 -45.71 128.78 -45.95C128.84 -46.2 128.91 -46.45 128.97 -46.7C129.01 -46.87 128.98 -47 128.88 -47.12C128.08 -48.09 127.82 -49.33 128.08 -50.91C128.61 -54.1 131.09 -56.26 134.27 -56.29C136.04 -56.29 137.17 -55.84 138.19 -54.88C139.06 -54.07 139.58 -52.99 139.67 -51.76C139.83 -49.48 139.43 -47.56 138.44 -45.91C137.69 -44.65 136.9 -44.02 135.73 -43.97C135.72 -43.97 135.63 -43.97 135.62 -43.97C134.82 -43.97 134.15 -44.28 133.72 -44.85C133.29 -45.42 133.16 -46.17 133.35 -46.97C133.5 -47.57 133.67 -48.16 133.84 -48.75C133.97 -49.2 134.1 -49.65 134.22 -50.1C134.35 -50.61 134.46 -51.11 134.37 -51.59C134.23 -52.34 133.73 -52.82 133.09 -52.82C132.78 -52.82 132.47 -52.71 132.18 -52.49ZM129.4 -35.57C129.33 -35.66 129.29 -35.71 129.29 -35.72C129.15 -35.89 129.08 -36.09 129.05 -36.34C128.87 -37.76 128.76 -39.45 129.16 -41.19C129.42 -42.29 129.67 -43.4 129.92 -44.51C129.99 -44.8 130.53 -47.13 130.59 -47.43C130.66 -47.72 130.65 -47.94 130.58 -48.16C130.35 -48.8 130.26 -49.46 130.3 -50.1C130.37 -51 130.59 -52.27 131.72 -53.13C132.15 -53.45 132.62 -53.62 133.09 -53.62C134.1 -53.62 134.92 -52.86 135.12 -51.74C135.24 -51.09 135.11 -50.47 134.96 -49.9C134.84 -49.44 134.71 -48.98 134.58 -48.53C134.41 -47.95 134.25 -47.37 134.1 -46.78C133.97 -46.22 134.05 -45.71 134.33 -45.34C134.61 -44.97 135.06 -44.77 135.62 -44.77C135.63 -44.77 135.69 -44.77 135.7 -44.77C136.61 -44.8 137.32 -45.29 137.93 -46.33C138.83 -47.82 139.06 -49.59 138.9 -51.71C138.83 -52.74 138.56 -53.61 137.81 -54.29C136.94 -55.11 135.84 -55.49 134.34 -55.49C131.44 -55.47 129.3 -53.62 128.84 -50.78C128.61 -49.43 128.81 -48.42 129.46 -47.63C129.73 -47.32 129.81 -46.93 129.71 -46.51C129.66 -46.25 129.59 -46 129.52 -45.74C129.46 -45.52 129.29 -44.87 128.67 -44.87C128.47 -44.87 128.27 -44.93 128.02 -45.07C127.14 -45.53 126.49 -46.27 126.04 -47.33C125.81 -47.87 125.71 -48.43 125.6 -48.97C125.6 -49 125.57 -49.14 125.53 -49.4L125.56 -51C125.59 -51.13 125.6 -51.21 125.6 -51.23C125.92 -53.24 126.79 -54.88 128.19 -56.09C130.97 -58.52 134.23 -59.18 137.7 -58.01C140.53 -57.04 142.06 -55 142.55 -52.11C143.01 -49.34 142.49 -46.66 140.86 -44.37C139.99 -43.14 139 -42.42 137.63 -42.05C135.69 -41.52 134.25 -41.8 133.07 -42.89C133.07 -42.88 133.04 -42.76 133.04 -42.75C132.91 -42.27 132.78 -41.79 132.69 -41.31C132.32 -39.44 131.45 -37.55 130.05 -35.72C130.04 -35.71 130 -35.66 129.93 -35.57L129.4 -35.57Z" id="a7BHB1mMJ2"></path><path d="M153.03 -54.41C152.97 -54.45 152.89 -54.48 152.82 -54.48C152.64 -54.48 152.54 -54.35 152.54 -54.13C152.54 -54.06 152.54 -53.7 152.54 -53.05L152.54 -52.33L152.54 -42.62L152.54 -41.91L152.54 -41.91C152.54 -41.89 152.54 -41.88 152.54 -41.88C152.54 -41.67 152.63 -41.55 152.8 -41.55C152.88 -41.55 152.97 -41.57 153.05 -41.62C153.96 -42.25 161.28 -47.23 162.2 -47.85C162.37 -47.96 162.43 -48.06 162.43 -48.1C162.43 -48.13 162.38 -48.22 162.22 -48.32C160.39 -49.54 153.95 -53.8 153.03 -54.41ZM153.43 -41.01C153.23 -40.88 153.01 -40.83 152.8 -40.83C152.28 -40.83 151.82 -41.23 151.82 -41.88C151.82 -41.93 151.82 -42.18 151.82 -42.62L151.83 -42.62L151.83 -52.33L151.82 -52.33C151.82 -53.41 151.82 -54.01 151.82 -54.13C151.82 -54.79 152.28 -55.2 152.82 -55.2C153.02 -55.2 153.23 -55.14 153.43 -55.02C154.34 -54.41 161.69 -49.54 162.61 -48.93C163.32 -48.47 163.31 -47.71 162.59 -47.25C160.76 -46 154.34 -41.64 153.43 -41.01ZM164.04 -58.8C162.61 -58.8 151.11 -58.8 149.67 -58.8C147.68 -58.8 146.07 -57.19 146.07 -55.2C146.07 -53.76 146.07 -42.26 146.07 -40.83C146.07 -38.84 147.68 -37.23 149.67 -37.23C151.11 -37.23 162.61 -37.23 164.04 -37.23C166.03 -37.23 167.64 -38.84 167.64 -40.83C167.64 -41.79 167.64 -46.58 167.64 -55.2C166.56 -57.6 165.37 -58.8 164.04 -58.8ZM149.67 -36.51C147.29 -36.51 145.36 -38.45 145.36 -40.83C145.36 -42.26 145.36 -53.76 145.36 -55.2C145.36 -57.58 147.29 -59.51 149.67 -59.51C151.11 -59.51 162.61 -59.51 164.04 -59.51C166.42 -59.51 168.36 -57.58 168.36 -55.2C168.36 -53.76 168.36 -42.26 168.36 -40.83C168.36 -38.45 166.42 -36.51 164.04 -36.51C161.17 -36.51 151.11 -36.51 149.67 -36.51Z" id="c1pAQBMkw"></path><path d="M50.22 -54.08C50.22 -54.06 50.22 -53.93 50.22 -53.91C47.29 -54.33 44.59 -55.92 42.7 -58.36C42.55 -58.56 42.32 -58.67 42.07 -58.67C42.07 -58.67 42.02 -58.66 42.01 -58.66C41.75 -58.64 41.51 -58.49 41.38 -58.25C40.92 -57.43 40.68 -56.49 40.68 -55.54C40.68 -54.65 40.89 -53.8 41.27 -53.04C41.2 -53.03 41.12 -52.99 41.05 -52.95C40.81 -52.82 40.65 -52.56 40.65 -52.28C40.65 -52.27 40.65 -52.21 40.65 -52.2C40.65 -50.61 41.32 -49.14 42.41 -48.13C42.41 -48.13 42.39 -48.12 42.39 -48.12C42.21 -47.91 42.15 -47.62 42.23 -47.34C42.69 -45.82 43.76 -44.62 45.11 -44.01C44.04 -43.46 42.86 -43.18 41.63 -43.18C41.32 -43.18 41 -43.2 40.68 -43.24C40.67 -43.24 40.59 -43.24 40.58 -43.24C40.25 -43.24 39.96 -43.04 39.84 -42.72C39.71 -42.37 39.84 -41.99 40.14 -41.78C42.29 -40.33 44.77 -39.56 47.32 -39.56C52.33 -39.56 55.46 -42.05 57.21 -44.14C59.37 -46.73 60.61 -50.16 60.61 -53.55C60.61 -53.57 60.61 -53.75 60.61 -53.77C61.41 -54.43 62.1 -55.22 62.66 -56.11C62.86 -56.41 62.82 -56.8 62.59 -57.07C62.44 -57.25 62.22 -57.34 61.99 -57.34C61.95 -57.34 61.9 -57.34 61.84 -57.33C61.97 -57.59 62.08 -57.86 62.16 -58.14C62.26 -58.46 62.15 -58.8 61.89 -59.01C61.75 -59.12 61.58 -59.18 61.4 -59.18C61.26 -59.18 61.12 -59.14 60.99 -59.05C60.33 -58.64 59.62 -58.33 58.87 -58.13C57.92 -59.02 56.69 -59.51 55.41 -59.51C52.55 -59.51 50.22 -57.08 50.22 -54.08ZM58.62 -57.26C59.62 -57.46 60.56 -57.85 61.4 -58.38C61.08 -57.3 60.38 -56.39 59.47 -55.81C60.37 -55.92 61.21 -56.18 61.99 -56.55C61.41 -55.61 60.66 -54.8 59.81 -54.14C59.82 -53.94 59.82 -53.74 59.82 -53.55C59.82 -47.42 55.4 -40.36 47.32 -40.36C44.83 -40.36 42.53 -41.13 40.58 -42.45C40.92 -42.41 41.28 -42.38 41.63 -42.38C43.69 -42.38 45.59 -43.12 47.09 -44.36C45.16 -44.4 43.54 -45.74 42.98 -47.58C43.25 -47.53 43.53 -47.5 43.81 -47.5C44.21 -47.5 44.6 -47.55 44.97 -47.66C42.96 -48.09 41.44 -49.96 41.44 -52.2C41.44 -52.21 41.44 -52.26 41.44 -52.26C42.03 -51.92 42.71 -51.71 43.43 -51.69C42.26 -52.52 41.47 -53.93 41.47 -55.54C41.47 -56.39 41.7 -57.18 42.07 -57.87C44.24 -55.06 47.48 -53.22 51.13 -53.03C51.05 -53.37 51.01 -53.72 51.01 -54.08C51.01 -56.64 52.98 -58.72 55.41 -58.72C56.67 -58.72 57.81 -58.15 58.62 -57.26Z" id="f3coRZQoRb"></path><path d="M41.42 -64.03C39.98 -64.03 28.48 -64.03 27.05 -64.03C25.06 -64.03 23.45 -62.42 23.45 -60.43C23.45 -59 23.45 -47.5 23.45 -46.06C23.45 -44.08 25.06 -42.47 27.05 -42.47C27.53 -42.47 29.92 -42.47 34.22 -42.47L34.22 -49.65L32.08 -49.65L32.08 -53.25L34.23 -53.24C34.23 -54.97 34.23 -55.93 34.23 -56.12C34.23 -57.24 35.04 -59 37.11 -59C37.14 -59 37.36 -59 37.38 -59C40.73 -59 40.67 -58.99 40.67 -58.99C40.67 -58.75 40.67 -57.55 40.67 -55.4C39.36 -55.4 38.63 -55.4 38.48 -55.4C38.48 -55.4 37.79 -55.39 37.79 -54.68C37.79 -54.58 37.79 -54.1 37.79 -53.24L39.98 -53.25L39.98 -49.65L37.83 -49.65L37.83 -42.47C39.98 -42.47 41.18 -42.47 41.42 -42.47C43.41 -42.47 45.02 -44.08 45.02 -46.06C45.02 -47.02 45.02 -51.81 45.02 -60.43C43.94 -62.83 42.74 -64.03 41.42 -64.03ZM39.27 -52.53L37.79 -52.52L37.1 -52.52L37.1 -53.24C37.1 -54.1 37.1 -54.58 37.1 -54.68C37.1 -55.6 37.81 -56.11 38.47 -56.11C38.57 -56.11 39.07 -56.11 39.98 -56.11L39.98 -58.28C38.26 -58.28 37.3 -58.28 37.11 -58.28C35.97 -58.28 34.95 -57.29 34.95 -56.12C34.95 -55.88 34.95 -54.68 34.95 -52.53L32.8 -52.53L32.8 -50.37L34.95 -50.37L34.91 -42.47L37.11 -42.47L37.11 -50.37L39.27 -50.37L39.27 -52.53ZM27.05 -41.75C24.67 -41.75 22.73 -43.68 22.73 -46.06C22.73 -47.5 22.73 -59 22.73 -60.43C22.73 -62.81 24.67 -64.75 27.05 -64.75C28.48 -64.75 39.98 -64.75 41.42 -64.75C43.8 -64.75 45.73 -62.81 45.73 -60.43C45.73 -59 45.73 -47.5 45.73 -46.06C45.73 -43.68 43.8 -41.75 41.42 -41.75C38.55 -41.75 28.48 -41.75 27.05 -41.75Z" id="esDuQXjwz"></path><path d="M68.22 -59.48C68.22 -58.05 69.38 -56.89 70.81 -56.89C72.24 -56.89 73.41 -58.05 73.41 -59.48C73.41 -60.91 72.24 -62.08 70.81 -62.08C69.38 -62.08 68.22 -60.91 68.22 -59.48ZM67.47 -59.48C67.47 -61.33 68.96 -62.82 70.81 -62.82C72.66 -62.82 74.15 -61.33 74.15 -59.48C74.15 -57.63 72.66 -56.14 70.81 -56.14C68.96 -56.14 67.47 -57.63 67.47 -59.48ZM68.22 -54.71L68.22 -41.31L73.41 -41.31L73.41 -54.71L68.22 -54.71ZM67.47 -40.57L67.47 -40.96L67.47 -55.03L67.47 -55.45L68.54 -55.45L73.1 -55.45L74.15 -55.45L74.15 -55.03L74.15 -40.96L74.15 -40.57L73.1 -40.57L68.54 -40.57L67.47 -40.57ZM84.49 -55.48C82.61 -55.48 81.57 -54.79 80.09 -53.14C80.09 -53.24 80.09 -53.77 80.09 -54.71L75.63 -54.71L75.63 -41.31L80.09 -41.31C80.09 -45.69 80.09 -48.12 80.09 -48.61C80.09 -50.22 80.75 -51.8 82.46 -51.8C84.17 -51.8 84.54 -50.22 84.54 -48.64C84.54 -48.15 84.54 -45.71 84.54 -41.31L89.73 -41.31L89.73 -48.96C87.5 -53.3 85.75 -55.48 84.49 -55.48ZM84.86 -40.57L83.8 -40.57L83.8 -40.96C83.8 -45.57 83.8 -48.13 83.8 -48.64C83.8 -51.05 82.84 -51.05 82.46 -51.05C80.87 -51.05 80.83 -49.01 80.83 -48.61C80.83 -48.1 80.83 -45.55 80.83 -40.96L80.83 -40.57L80.32 -40.57L75.77 -40.57L74.89 -40.57L74.89 -40.96L74.89 -55.03L74.89 -55.45L75.77 -55.45L80.32 -55.45L80.83 -55.45C80.83 -55.23 80.83 -55.11 80.83 -55.08C81.57 -55.8 82.83 -56.22 84.32 -56.22C85.33 -56.22 87.02 -55.98 88.24 -54.84C89.57 -53.61 90.47 -51.63 90.47 -48.96C90.47 -48.43 90.47 -45.76 90.47 -40.96L90.47 -40.57L89.39 -40.57L84.86 -40.57Z" id="a1yqvh5btD"></path><path d="M126.76 -43.54C126.34 -43.54 125.99 -43.14 125.99 -42.72C125.99 -38.8 122.42 -38.17 122.28 -38.14C121.93 -38.05 121.49 -37.72 121.49 -37.35C121.49 -37.03 121.49 -34.53 121.49 -34.21C121.49 -33.78 122.21 -33.6 122.64 -33.6C122.76 -33.6 123.4 -33.6 124.56 -33.6C124.56 -29.14 124.56 -26.66 124.56 -26.16C124.56 -23.07 127.27 -20.54 130.62 -20.54C133.75 -20.54 135.59 -21.82 135.66 -21.87C135.86 -22.02 136.06 -22.25 136.06 -22.51C136.06 -22.85 136.06 -25.65 136.06 -25.99C136.06 -26.33 135.76 -26.63 135.45 -26.74C135.36 -26.76 135.24 -26.78 135.16 -26.78C134.92 -26.78 134.67 -26.67 134.52 -26.47C134.5 -26.44 133.85 -25.6 132.48 -25.6C131.15 -25.6 130.69 -26.64 130.69 -27.34C130.69 -27.75 130.69 -29.84 130.69 -33.6C132.95 -33.6 134.2 -33.6 134.45 -33.6C134.87 -33.6 135.3 -33.71 135.3 -34.14C135.3 -34.47 135.3 -37.12 135.3 -37.45C135.3 -37.89 134.87 -38.18 134.45 -38.18C134.2 -38.18 132.95 -38.18 130.69 -38.18C130.69 -40.88 130.69 -42.37 130.69 -42.67C130.69 -43.1 130.28 -43.54 129.85 -43.54C129.23 -43.54 127.07 -43.54 126.76 -43.54ZM129.93 -37.4L134.53 -37.4L134.53 -34.33L129.93 -34.33C129.93 -30.13 129.93 -27.8 129.93 -27.34C129.93 -26.24 130.76 -24.82 132.56 -24.82C134.36 -24.82 135.3 -25.99 135.3 -25.99C135.3 -25.65 135.3 -22.85 135.3 -22.51C135.3 -22.51 133.63 -21.33 130.71 -21.33C127.79 -21.33 125.33 -23.52 125.33 -26.16C125.33 -26.71 125.33 -29.43 125.33 -34.33L122.26 -34.33C122.26 -36.14 122.26 -37.15 122.26 -37.35C122.26 -37.35 126.76 -38.08 126.76 -42.76C126.97 -42.76 128.03 -42.76 129.93 -42.76L129.93 -37.4Z" id="e50n078n4i"></path><path d="M48.06 -54.27C48.06 -52.41 46.55 -50.9 44.69 -50.9C44.33 -50.9 42.51 -50.9 39.25 -50.9L37.9 -52.25L36.56 -52.25L35.21 -50.9C31.14 -50.9 28.88 -50.9 28.43 -50.9C26.57 -50.9 25.06 -52.41 25.06 -54.27C25.06 -55.9 25.06 -68.91 25.06 -70.54C25.06 -72.4 26.57 -73.9 28.43 -73.9C30.05 -73.9 43.06 -73.9 44.69 -73.9C46.55 -73.9 48.06 -72.4 48.06 -70.54C48.06 -67.28 48.06 -55.9 48.06 -54.27Z" id="g4EIVu95vA"></path><path d="M55.41 -41.41C55.41 -39.55 53.9 -38.04 52.04 -38.04C51.68 -38.04 49.87 -38.04 46.61 -38.04L45.26 -39.39L44.59 -39.39L44.59 -61.04C49.06 -61.04 51.55 -61.04 52.04 -61.04C53.9 -61.04 55.41 -59.53 55.41 -57.67C55.41 -54.42 55.41 -43.03 55.41 -41.41Z" id="enzYWsNNN"></path><path d="M40.54 -40.38L40.54 -37.69L44.59 -37.69L43.91 -33.64L40.54 -33.64L40.54 -25.47L38.52 -25.47C38.52 -36.52 38.52 -42.66 38.52 -43.88C39.12 -44.22 39.82 -44.42 40.54 -44.42C40.81 -44.42 42.16 -44.42 44.59 -44.42L44.59 -40.38L40.54 -40.38Z" id="m2rlqlvrm"></path><path d="M118.98 -76.77C117.68 -75.45 117.68 -73.32 118.98 -72C120.3 -70.69 122.43 -70.69 123.75 -72C125.06 -73.32 125.06 -75.45 123.75 -76.77C122.43 -78.08 120.3 -78.08 118.98 -76.77Z" id="j1fnuxkVFn"></path><path d="M132.78 -71.01C132.38 -71.01 129.15 -71.01 128.74 -71.01C128.77 -71.24 128.78 -71.46 128.78 -71.69C128.78 -74.48 127.65 -77 125.82 -78.83C123.98 -80.66 121.46 -81.8 118.67 -81.8C118.44 -81.8 118.23 -81.78 118 -81.76C118 -82.16 118 -85.39 118 -85.8C118.23 -85.81 118.44 -85.84 118.67 -85.84C122.58 -85.84 126.11 -84.25 128.67 -81.69C131.23 -79.13 132.82 -75.6 132.82 -71.69C132.82 -71.46 132.8 -71.24 132.78 -71.01Z" id="bkxZCYyKy"></path><path d="M140.96 -71.01C140.55 -71.01 137.24 -71.01 136.83 -71.01C136.84 -71.24 136.87 -71.46 136.87 -71.69C136.87 -76.7 134.83 -81.26 131.53 -84.54C128.24 -87.85 123.69 -89.88 118.67 -89.88C118.44 -89.88 118.23 -89.85 118 -89.84C118 -90.25 118 -93.56 118 -93.97C118.23 -93.99 118.44 -94.01 118.67 -94.01C124.82 -94.01 130.37 -91.43 134.4 -87.42C138.42 -83.39 141 -77.83 141 -71.69C141 -71.46 140.97 -71.24 140.96 -71.01Z" id="c9hbxlR1G3"></path><path d="M123.75 -76.77C125.06 -75.45 125.06 -73.32 123.75 -72C122.43 -70.69 120.3 -70.69 118.98 -72C119.94 -72.95 122.8 -75.81 123.75 -76.77Z" id="d1TXoR1yTO"></path><path d="M133.47 -88.62C136.03 -86.06 137.62 -82.53 137.62 -78.62C137.62 -78.39 137.6 -78.17 137.58 -77.95C137.18 -77.95 133.95 -77.95 133.54 -77.95C133.57 -78.17 133.58 -78.39 133.58 -78.62C133.58 -81.41 132.45 -83.93 130.62 -85.76C131.19 -86.33 132.9 -88.05 133.47 -88.62Z" id="axaHPb6H"></path><path d="M140.96 -71.01C140.55 -71.01 137.24 -71.01 136.83 -71.01C136.84 -71.24 136.87 -71.46 136.87 -71.69C136.87 -76.7 134.83 -81.26 131.53 -84.54C131.82 -84.83 134.11 -87.13 134.4 -87.42C138.42 -83.39 141 -77.83 141 -71.69C141 -71.46 140.97 -71.24 140.96 -71.01Z" id="h1oQdSsYny"></path><path d="M70.84 -76.77C68.98 -76.77 67.47 -75.26 67.47 -73.4C67.47 -71.77 67.47 -58.76 67.47 -57.14C67.47 -55.28 68.98 -53.77 70.84 -53.77C72.47 -53.77 85.48 -53.77 87.1 -53.77C88.96 -53.77 90.47 -55.28 90.47 -57.14C90.47 -58.76 90.47 -71.77 90.47 -73.4C90.47 -75.26 88.96 -76.77 87.1 -76.77C83.85 -76.77 72.47 -76.77 70.84 -76.77Z" id="a5cJDxX2sS"></path><path d="M92.76 -56.76C92.76 -54.9 91.25 -53.39 89.39 -53.39C88.85 -53.39 86.14 -53.39 81.26 -53.39L81.26 -76.39C86.14 -76.39 88.85 -76.39 89.39 -76.39C91.25 -76.39 92.76 -74.88 92.76 -73.02C92.76 -69.77 92.76 -58.38 92.76 -56.76Z" id="akeKlDqKn"></path><path d="M86.03 -71.67C86.03 -72.79 86.93 -73.69 88.05 -73.69C89.16 -73.69 90.07 -72.79 90.07 -71.67C90.07 -70.56 89.16 -69.65 88.05 -69.65C86.93 -69.65 86.03 -70.56 86.03 -71.67ZM87.37 -71.67C87.37 -71.3 87.68 -71 88.05 -71C88.42 -71 88.72 -71.3 88.72 -71.67C88.72 -72.04 88.42 -72.35 88.05 -72.35C87.68 -72.35 87.37 -72.04 87.37 -71.67Z" id="g4ND1Bpt8e"></path><path d="M75.2 -64.93C75.2 -61.59 77.92 -58.87 81.26 -58.87C84.61 -58.87 87.37 -61.59 87.37 -64.93C87.37 -68.28 84.61 -71 81.26 -71C77.92 -71 75.2 -68.28 75.2 -64.93ZM76.55 -64.93C76.55 -67.53 78.66 -69.65 81.26 -69.65C83.86 -69.65 86.03 -67.53 86.03 -64.93C86.03 -62.33 83.86 -60.22 81.26 -60.22C78.66 -60.22 76.55 -62.33 76.55 -64.93Z" id="ewmm32VnY"></path><path d="M87.41 -64.7L85.32 -62.47L85.87 -58.57L92.01 -63.17L87.41 -64.7Z" id="b1tyqKRYEb"></path><path d="M418.45 207.83C421 207.83 422.42 207.83 422.71 207.83C423.82 205.74 424.45 203.36 424.45 200.83C424.45 195.93 422.09 191.59 418.45 188.85C418.45 191.39 418.45 197.71 418.45 207.83ZM405.15 186.46C405.97 187.2 410.07 190.86 417.45 197.45C417.45 191.88 417.45 188.78 417.45 188.16C415.13 186.69 412.39 185.83 409.45 185.83C407.96 185.83 406.52 186.06 405.15 186.46ZM394.6 202.89C395.54 202.1 400.23 198.12 408.69 190.96C405.92 188.49 404.38 187.12 404.07 186.84C398.45 189 394.45 194.44 394.45 200.83C394.45 201.53 394.5 202.22 394.6 202.89ZM401.45 198.4C397.47 201.78 395.26 203.65 394.82 204.02C395.69 208 398.11 211.39 401.45 213.5C401.45 211.49 401.45 206.46 401.45 198.4ZM417.45 207.83L417.45 198.79L409.44 191.63L402.45 197.55L402.45 207.83L417.45 207.83ZM409.45 215.83C414.79 215.83 419.47 213.03 422.12 208.83C421.87 208.83 420.65 208.83 418.45 208.83L417.45 208.83L402.45 208.83L402.45 214.09C405.43 215.25 407.76 215.83 409.45 215.83ZM393.45 200.83C393.45 191.99 400.61 184.83 409.45 184.83C418.29 184.83 425.45 191.99 425.45 200.83C425.45 209.67 418.29 216.83 409.45 216.83C400.61 216.83 393.45 209.67 393.45 200.83Z" id="eIuZF193k"></path><path d="M331.91 206.47C332.58 206.01 332.92 205.43 332.92 204.74C332.92 204.19 332.74 203.74 332.37 203.4C332.01 203.06 331.54 202.79 330.96 202.61C330.38 202.43 329.61 202.24 328.64 202.04C327.34 201.76 326.26 201.43 325.39 201.06C324.51 200.69 323.82 200.18 323.31 199.53C322.8 198.89 322.54 198.09 322.54 197.13C322.54 196.22 322.81 195.41 323.35 194.7C323.89 193.99 324.67 193.45 325.7 193.07C326.73 192.68 327.93 192.5 329.32 192.5C330.42 192.5 331.38 192.62 332.19 192.87C333 193.13 333.67 193.46 334.2 193.88C334.73 194.3 335.12 194.74 335.37 195.2C335.61 195.66 335.74 196.11 335.74 196.54C335.74 196.94 335.58 197.3 335.28 197.62C334.97 197.94 334.59 198.1 334.13 198.1C333.71 198.1 333.39 198.01 333.17 197.81C332.96 197.62 332.72 197.31 332.47 196.87C332.14 196.25 331.75 195.76 331.28 195.41C330.83 195.06 330.09 194.88 329.07 194.88C328.13 194.88 327.37 195.07 326.79 195.45C326.21 195.83 325.92 196.29 325.92 196.83C325.92 197.16 326.02 197.44 326.22 197.68C326.41 197.93 326.68 198.13 327.03 198.31C327.37 198.48 327.72 198.61 328.07 198.71C328.43 198.81 329.01 198.95 329.82 199.14C330.84 199.36 331.76 199.6 332.58 199.87C333.41 200.13 334.11 200.45 334.69 200.83C335.26 201.2 335.72 201.68 336.04 202.26C336.36 202.83 336.53 203.54 336.53 204.38C336.53 205.38 336.24 206.28 335.68 207.08C335.12 207.88 334.3 208.5 333.22 208.96C332.13 209.41 330.85 209.63 329.37 209.63C327.59 209.63 326.12 209.33 324.96 208.71C324.14 208.26 323.48 207.67 322.96 206.93C322.45 206.19 322.2 205.46 322.2 204.76C322.2 204.35 322.35 204.01 322.66 203.72C322.96 203.42 323.36 203.28 323.83 203.28C324.22 203.28 324.54 203.39 324.81 203.62C325.08 203.85 325.3 204.18 325.49 204.63C325.72 205.15 325.97 205.59 326.24 205.95C326.5 206.3 326.88 206.6 327.36 206.83C327.84 207.05 328.48 207.17 329.27 207.17C330.35 207.17 331.23 206.94 331.91 206.47ZM313.45 192.97C313.45 194.8 314.06 196.49 315.09 197.85C314.88 198.82 314.76 199.83 314.76 200.87C314.76 208.75 321.15 215.13 329.03 215.13C330.04 215.13 331.03 215.02 331.98 214.82C333.41 216.07 335.27 216.83 337.32 216.83C341.81 216.83 345.45 213.19 345.45 208.7C345.45 206.47 344.56 204.46 343.11 203C343.22 202.3 343.29 201.59 343.29 200.87C343.29 192.99 336.91 186.6 329.03 186.6C328.29 186.6 327.57 186.67 326.87 186.78C325.44 185.57 323.6 184.83 321.58 184.83C317.09 184.83 313.45 188.47 313.45 192.97ZM327.79 205.92C327.46 205.76 327.2 205.57 327.03 205.34C326.82 205.06 326.61 204.68 326.41 204.24C326.17 203.65 325.84 203.19 325.46 202.86C325.02 202.48 324.45 202.28 323.83 202.28C323.1 202.28 322.46 202.53 321.97 202.99C321.46 203.47 321.2 204.08 321.2 204.76C321.2 205.67 321.51 206.59 322.14 207.5C322.74 208.37 323.53 209.07 324.49 209.59C325.79 210.28 327.43 210.63 329.37 210.63C330.98 210.63 332.4 210.38 333.6 209.88C334.85 209.36 335.83 208.61 336.5 207.65C337.18 206.68 337.53 205.58 337.53 204.38C337.53 203.37 337.32 202.49 336.91 201.77C336.51 201.05 335.95 200.45 335.23 199.99C334.58 199.57 333.79 199.2 332.89 198.91C332.03 198.64 331.07 198.39 330.05 198.17C329.25 197.98 328.67 197.84 328.35 197.75C328.05 197.67 327.76 197.55 327.48 197.41C327.26 197.3 327.1 197.18 326.99 197.05C326.96 197.01 326.92 196.95 326.92 196.83C326.92 196.75 326.92 196.56 327.34 196.29C327.75 196.02 328.33 195.88 329.07 195.88C330.1 195.88 330.52 196.08 330.68 196.2C331.02 196.46 331.32 196.84 331.6 197.37C331.91 197.91 332.21 198.3 332.51 198.56C332.91 198.92 333.46 199.1 334.13 199.1C334.86 199.1 335.5 198.83 336 198.32C336.48 197.81 336.74 197.2 336.74 196.54C336.74 195.94 336.57 195.33 336.25 194.73C335.94 194.15 335.46 193.6 334.82 193.09C334.19 192.6 333.41 192.21 332.49 191.92C331.58 191.64 330.52 191.5 329.32 191.5C327.82 191.5 326.48 191.71 325.35 192.13C324.15 192.57 323.21 193.23 322.56 194.09C321.88 194.97 321.54 196 321.54 197.13C321.54 198.31 321.87 199.33 322.53 200.16C323.14 200.93 323.97 201.54 325 201.98C325.93 202.38 327.09 202.73 328.43 203.02C329.37 203.21 330.11 203.4 330.66 203.57C331.09 203.7 331.44 203.89 331.69 204.13C331.8 204.23 331.92 204.39 331.92 204.74C331.92 204.98 331.86 205.3 331.34 205.65C330.84 206 330.14 206.17 329.27 206.17C328.64 206.17 328.13 206.08 327.79 205.92ZM326.22 187.54C326.24 187.56 326.35 187.66 326.56 187.84C326.83 187.8 326.99 187.78 327.02 187.77C327.76 187.66 328.41 187.6 329.03 187.6C336.34 187.6 342.29 193.55 342.29 200.87C342.29 201.47 342.24 202.09 342.13 202.85C342.12 202.89 342.1 203.05 342.05 203.34C342.26 203.56 342.37 203.68 342.4 203.7C343.72 205.04 344.45 206.81 344.45 208.7C344.45 212.63 341.25 215.83 337.32 215.83C335.6 215.83 333.94 215.21 332.64 214.07C332.61 214.05 332.49 213.94 332.26 213.74C331.96 213.8 331.8 213.84 331.77 213.84C330.86 214.04 329.94 214.13 329.03 214.13C321.71 214.13 315.76 208.18 315.76 200.87C315.76 199.94 315.86 199 316.07 198.06C316.07 198.03 316.1 197.88 316.16 197.61C316 197.39 315.91 197.27 315.89 197.24C314.95 195.99 314.45 194.52 314.45 192.97C314.45 189.03 317.65 185.83 321.58 185.83C323.28 185.83 324.92 186.44 326.22 187.54Z" id="a47UaaDRD"></path><path d="M580.16 120.81C578.08 123.36 575.51 125.27 572.3 126.64C572.24 126.67 571.95 126.79 571.44 127C571.68 127.53 571.82 127.82 571.85 127.87C572.23 128.68 572.6 129.52 572.97 130.39C572.99 130.44 573.08 130.65 573.24 131.03C573.63 130.97 573.85 130.93 573.9 130.92C575.16 130.71 576.5 130.6 577.88 130.6C579.73 130.6 581.71 130.79 583.77 131.17C583.83 131.19 584.36 131.28 584.43 131.29C584.43 131.13 584.45 130.98 584.45 130.83C584.45 126.85 582.89 123.24 580.36 120.56C580.32 120.61 580.18 120.79 580.16 120.81ZM565.31 116.59C567.23 119.33 568.99 122.23 570.55 125.23C570.57 125.28 570.69 125.51 570.91 125.93C571.34 125.76 571.58 125.66 571.63 125.64C574.84 124.3 577.49 122.34 579.49 119.81C579.49 119.81 579.53 119.76 579.54 119.75C576.87 117.32 573.34 115.83 569.45 115.83C567.98 115.83 566.56 116.05 565.21 116.45C565.23 116.48 565.3 116.58 565.31 116.59ZM555.33 128.14C560.94 128.13 565.21 127.65 568.79 126.62C568.86 126.6 569.21 126.5 569.85 126.32C569.53 125.72 569.35 125.39 569.32 125.32C567.4 121.68 565.45 118.74 564.09 116.83C559.29 118.68 555.67 122.91 554.71 128.08C554.83 128.1 555.27 128.14 555.33 128.14ZM559.24 141.12C562.51 136.13 566.41 133 571.17 131.55C571.23 131.54 571.55 131.44 572.12 131.26C571.88 130.69 571.74 130.38 571.72 130.31C571.38 129.54 571.04 128.77 570.7 128.04C570.68 128 570.57 127.76 570.37 127.34C569.95 127.45 569.71 127.5 569.67 127.51C565.78 128.7 561.26 129.16 555.03 129.16C554.98 129.16 554.6 129.16 554.55 129.16C554.49 129.71 554.45 130.26 554.45 130.83C554.45 135.03 556.18 138.82 558.96 141.54C559.01 141.46 559.21 141.17 559.24 141.12ZM572.85 133.12C572.83 133.07 572.73 132.82 572.56 132.37C572.11 132.5 571.86 132.57 571.81 132.58C565.47 134.4 561.98 138.92 559.91 142.17C559.9 142.19 559.82 142.31 559.81 142.32C562.42 144.51 565.78 145.83 569.45 145.83C571.72 145.83 573.87 145.31 575.79 144.41C575.27 140.73 574.28 136.93 572.85 133.12ZM583.87 132.37C581.78 131.97 579.78 131.77 577.92 131.77C576.84 131.77 575.78 131.84 574.77 131.97C574.69 131.98 574.33 132.03 573.68 132.12C573.91 132.77 574.04 133.12 574.07 133.19C575.32 136.59 576.22 139.99 576.76 143.28C576.77 143.34 576.85 143.81 576.86 143.86C580.94 141.54 583.83 137.36 584.36 132.46C584.26 132.45 583.92 132.38 583.87 132.37ZM553.45 130.83C553.45 121.99 560.61 114.83 569.45 114.83C578.29 114.83 585.45 121.99 585.45 130.83C585.45 139.67 578.29 146.83 569.45 146.83C560.61 146.83 553.45 139.67 553.45 130.83Z" id="d59iUdo3w"></path><path d="M420.45 116.86L418.45 116.86L417.45 116.86L417.45 117.86L417.45 120.83L414.45 120.83L413.45 120.83L413.45 121.83L413.45 123.86L413.45 124.86L414.45 124.86L417.45 124.86L417.45 127.83L417.45 128.83L418.45 128.83L420.45 128.83L421.45 128.83L421.45 127.83L421.45 124.86L424.45 124.86L425.45 124.86L425.45 123.86L425.45 121.83L425.45 120.83L424.45 120.83L421.45 120.83L421.45 117.86L421.45 116.86L420.45 116.86ZM398.62 138.6C398.62 136.82 401.03 135.21 403.68 135.21C403.68 135.21 403.74 135.21 403.75 135.21C404.33 135.21 404.89 135.3 405.42 135.45C405.47 135.49 405.89 135.79 405.95 135.82C407.37 136.78 408.06 137.29 408.27 138.1C408.31 138.3 408.34 138.51 408.34 138.72C408.34 140.18 407.76 141.86 403.2 141.86C400.55 141.86 398.62 140.49 398.62 138.6ZM404.08 127.67C402.41 127.62 400.73 125.59 400.43 123.25C400.25 121.95 400.52 120.79 401.15 120.07C401.54 119.63 402.03 119.4 402.6 119.4C402.6 119.4 402.65 119.4 402.66 119.4C404.2 119.45 406.08 121.2 406.41 123.74C406.58 125.01 406.29 126.22 405.64 126.96C405.35 127.28 404.86 127.67 404.14 127.67C404.13 127.67 404.08 127.67 404.08 127.67ZM412.19 115.83C407.12 115.83 404.31 115.83 403.75 115.83C399.38 115.83 395.4 119.35 395.4 123.21C395.4 127.13 398.3 130.14 402.24 130.41C402.2 130.62 402.18 130.83 402.18 131.05C402.18 131.52 402.27 131.98 402.45 132.43C397.53 132.6 393.45 135.77 393.45 139.5C393.45 143.05 397.74 145.83 403.22 145.83C407.75 145.83 412.45 143.04 412.45 138.38C412.45 135.49 411.55 133.78 409.14 132.08C408.29 131.48 407.44 130.56 407.34 130.23C407.34 129.79 407.37 129.58 408.57 128.64C410.47 127.16 411.44 125.45 411.44 123.58C411.44 122.16 411.03 120.88 410.26 119.83C410.26 119.83 410.27 119.83 410.3 119.83L410.73 119.83L411.02 119.52L412.91 117.52L414.51 115.83L412.19 115.83ZM420.45 121.83L424.45 121.83L424.45 123.86L420.45 123.86L420.45 127.83L418.45 127.83L418.45 123.86L414.45 123.86L414.45 121.83L418.45 121.83L418.45 117.86L420.45 117.86L420.45 121.83ZM409.34 138.72C409.34 138.43 409.3 138.14 409.24 137.85C408.88 136.46 407.62 135.77 405.86 134.55C405.22 134.34 404.52 134.22 403.76 134.21C403.75 134.21 403.69 134.21 403.68 134.21C400.47 134.21 397.62 136.2 397.62 138.6C397.62 141.06 399.96 142.86 403.2 142.86C407.75 142.86 409.34 141.19 409.34 138.72ZM407.4 123.61C407.03 120.76 404.87 118.47 402.69 118.4C402.68 118.4 402.61 118.4 402.6 118.4C400.47 118.4 399.06 120.56 399.43 123.38C399.81 126.23 401.88 128.6 404.05 128.67C404.05 128.67 404.08 128.67 404.14 128.67C406.56 127.18 407.64 125.49 407.4 123.61ZM410.3 118.83C408.69 118.83 407.8 118.83 407.62 118.83C409.4 119.83 410.44 121.45 410.44 123.58C410.44 125.36 409.35 126.76 407.96 127.86C406.6 128.92 406.34 129.36 406.34 130.27C406.34 131.04 407.8 132.35 408.56 132.89C410.79 134.47 411.45 135.93 411.45 138.38C411.45 141.43 408.56 144.83 403.22 144.83C398.53 144.83 394.45 142.55 394.45 139.5C394.45 136.4 398.18 133.42 402.87 133.42C403.38 133.42 403.85 133.4 404.33 133.4C403.69 132.77 403.18 132 403.18 131.05C403.18 130.5 403.36 129.93 403.61 129.45C403.59 129.46 403.48 129.46 403.47 129.46C403.26 129.46 403.05 129.43 402.83 129.43C398.98 129.43 396.4 126.6 396.4 123.21C396.4 119.89 399.96 116.83 403.75 116.83C404.31 116.83 407.12 116.83 412.19 116.83L410.3 118.83Z" id="a4olB9ucdg"></path><path d="M20.94 -27.59C21.12 -28.06 21.66 -29.06 22.06 -29.61C24.45 -32.83 23.92 -32.88 24.5 -33.89C24.04 -33.89 20.4 -33.89 19.94 -33.89C19.94 -33.89 19.62 -32.76 19.51 -32.57C18.64 -30.78 16.68 -28.11 15.49 -27.84C14.32 -27.58 14.47 -30.34 14.55 -31.53C14.62 -32.64 14.6 -33.03 14.56 -33.22C14.52 -33.5 14.28 -33.7 14 -33.74C13.61 -33.78 13.03 -33.85 12.33 -33.86C11.96 -33.88 11.58 -33.88 11.18 -33.86C11.08 -33.86 10.23 -33.83 10.13 -33.82C10.55 -32.89 10.83 -33.18 10.98 -32.1C11.15 -30.85 11.09 -27.78 9.83 -27.78C7.84 -27.78 5.61 -33.76 5.53 -33.89C5.26 -33.89 3.92 -33.89 1.5 -33.89C1.72 -33.33 1.84 -33.02 1.86 -32.96C4.57 -26.19 7.93 -22.73 12.33 -21.95C12.76 -21.87 13.2 -21.81 13.66 -21.78C13.7 -21.78 13.92 -21.78 14.32 -21.77C14.35 -22.16 14.37 -22.37 14.37 -22.42C14.44 -23.4 14.94 -24.84 15.82 -24.84C17.12 -24.84 17.51 -24.45 18.37 -23.39C19.19 -22.38 19.77 -21.77 21.1 -21.77C21.33 -21.77 22.46 -21.77 24.5 -21.77C24.21 -22.35 24.05 -22.68 24.01 -22.74C23.26 -24.26 21.74 -25.57 21.14 -26.32C20.93 -26.61 20.73 -27.05 20.94 -27.59Z" id="a26k2FE9f9"></path><path d="M33.62 -25.3L33.62 -22.03L38.52 -22.03L37.7 -17.12L33.62 -17.12L33.62 -7.2L28.71 -7.2L28.71 -17.12L25.44 -17.12L25.44 -22.03L28.71 -22.03C28.71 -23.99 28.71 -25.08 28.71 -25.3C28.71 -27.11 29.71 -28.7 31.16 -29.55C31.88 -29.96 32.73 -30.2 33.62 -30.2C33.94 -30.2 35.58 -30.2 38.52 -30.2L38.52 -25.3L33.62 -25.3Z" id="b1tpv0MY3"></path><path d="M53.74 18.21C52.89 17.96 52.19 17.39 51.67 16.52C51.44 16.12 51.19 15.85 50.9 15.65C50.62 15.46 50.39 15.39 50.15 15.41C50.13 15.24 50.01 13.88 50 13.71C50.63 13.66 51.23 13.83 51.85 14.24C52.35 14.58 52.77 15.04 53.13 15.65C53.43 16.16 53.78 16.45 54.22 16.59C54.72 16.73 55.24 16.67 55.9 16.39C55.97 16.54 56.51 17.79 56.57 17.95C55.93 18.22 55.33 18.36 54.75 18.36C54.41 18.36 54.07 18.31 53.74 18.21Z" id="g529Y1Y5O"></path><path d="M61.32 14.42C61.81 15.15 62.4 15.54 62.39 17.07C62.39 17.62 62.39 22.02 62.39 22.58C61.3 22.85 60.16 23 58.99 23C57.81 23 56.73 22.85 55.64 22.58C55.64 22.02 55.64 17.56 55.64 17C55.64 15.49 56.22 15.07 56.66 14.42C52.87 13.86 51.37 11.86 50.78 10.28C49.98 8.17 50.4 5.55 51.8 3.89C51.83 3.86 51.88 3.77 51.86 3.72C51.22 1.78 52 0.17 52.03 0C52.77 0.22 52.88 -0.22 55.25 1.22C55.29 1.25 55.61 1.44 55.66 1.46C55.83 1.56 55.77 1.49 55.94 1.49C56.93 1.22 57.97 1.07 58.99 1.07C60.02 1.07 61.04 1.22 62.08 1.49C62.09 1.5 62.19 1.51 62.2 1.51C62.2 1.51 62.23 1.51 62.32 1.46C65.26 -0.32 65.16 0.25 65.96 0C65.97 0.17 66.76 1.8 66.11 3.72C66.02 3.97 68.66 6.39 67.2 10.28C66.6 11.86 65.11 13.86 61.32 14.42Z" id="c1LY9sDd42"></path><path d="M61.32 14.42C61.81 15.15 62.4 15.54 62.39 17.07C62.39 17.62 62.39 22.02 62.39 22.58C61.3 22.85 60.16 23 58.99 23C58.99 20.81 58.99 3.26 58.99 1.07C60.02 1.07 61.04 1.22 62.08 1.49C62.09 1.5 62.19 1.51 62.2 1.51C62.2 1.51 62.23 1.51 62.32 1.46C65.26 -0.32 65.16 0.25 65.96 0C65.97 0.17 66.76 1.8 66.11 3.72C66.02 3.97 68.66 6.39 67.2 10.28C66.6 11.86 65.11 13.86 61.32 14.42Z" id="a1LZbN2Uf"></path><path d="M84.39 -21.77L82.3 -19.54L82.86 -15.64L88.99 -20.24L84.39 -21.77Z" id="a1jYR8zTin"></path><path d="M108.37 0C106.51 0 105 1.51 105 3.37C105 5 105 18 105 19.63C105 21.49 106.51 23 108.37 23C110 23 123 23 124.63 23C126.49 23 128 21.49 128 19.63C128 18 128 5 128 3.37C128 1.51 126.49 0 124.63 0C121.38 0 110 0 108.37 0Z" id="a4mOwdpE7L"></path><path d="M116.5 17.52C116.5 17.38 116.5 16.31 116.5 16.17C119.1 16.17 121.26 14.06 121.26 11.46C121.26 8.85 119.1 6.74 116.5 6.74C116.5 6.6 116.5 5.53 116.5 5.39C119.84 5.39 122.61 8.11 122.61 11.46C122.61 14.8 119.84 17.52 116.5 17.52Z" id="haLo9AT0Q"></path><path d="M128 19.63C128 21.49 126.49 23 124.63 23C124.09 23 121.38 23 116.5 23L116.5 0C121.38 0 124.09 0 124.63 0C126.49 0 128 1.51 128 3.37C128 6.62 128 18 128 19.63Z" id="b8u9F72xA2"></path><path d="M110.44 11.46C110.44 14.8 113.16 17.52 116.5 17.52C119.84 17.52 122.61 14.8 122.61 11.46C122.61 8.11 119.84 5.39 116.5 5.39C113.16 5.39 110.44 8.11 110.44 11.46ZM111.78 11.46C111.78 8.85 113.9 6.74 116.5 6.74C119.1 6.74 121.26 8.85 121.26 11.46C121.26 14.06 119.1 16.17 116.5 16.17C113.9 16.17 111.78 14.06 111.78 11.46Z" id="bx4ME2ln2"></path><path d="M121.26 4.72C121.26 3.6 122.17 2.7 123.28 2.7C124.4 2.7 125.3 3.6 125.3 4.72C125.3 5.83 124.4 6.74 123.28 6.74C122.17 6.74 121.26 5.83 121.26 4.72ZM122.61 4.72C122.61 5.09 122.91 5.39 123.28 5.39C123.66 5.39 123.96 5.09 123.96 4.72C123.96 4.34 123.66 4.04 123.28 4.04C122.91 4.04 122.61 4.34 122.61 4.72Z" id="b6FDDNknes"></path><path d="M137.06 21.67C135.25 21.39 133.41 20.44 132.89 20.15C132.8 20.1 132.35 19.85 131.53 19.41C132.42 19.12 132.91 18.95 133.01 18.92C134.62 18.39 135.6 18.06 136.81 17.55C135.6 16.96 134.66 15.9 134.21 14.53C134.19 14.46 134.07 14.11 133.87 13.49C134.04 13.51 134.13 13.53 134.15 13.53C133.88 13.26 133.67 12.99 133.51 12.74C132.93 11.86 132.62 10.78 132.68 9.86C132.69 9.8 132.71 9.49 132.75 8.95C133.08 9.07 133.26 9.14 133.29 9.16C133.06 8.72 132.9 8.26 132.8 7.77C132.56 6.59 132.76 5.33 133.36 4.23C133.39 4.17 133.55 3.88 133.83 3.36C134.22 3.82 134.43 4.07 134.47 4.12C136.47 6.53 139.02 7.96 142.03 8.38C141.91 7.53 142 6.71 142.31 5.98C142.66 5.12 143.3 4.4 144.14 3.88C145.07 3.31 146.2 3.03 147.32 3.1C148.52 3.17 149.6 3.62 150.46 4.39C150.88 4.28 151.18 4.16 151.6 4.01C151.85 3.91 152.14 3.81 152.49 3.68C152.58 3.65 153.02 3.5 153.81 3.23C153.29 4.7 153.01 5.51 152.95 5.68C153.01 5.67 153.07 5.67 153.13 5.67C153.22 5.66 153.69 5.64 154.53 5.6C154.03 6.28 153.76 6.66 153.7 6.74C153.65 6.8 153.64 6.82 153.62 6.84C153.56 6.94 153.47 7.07 152.34 8.59C152.05 8.97 151.91 9.47 151.94 9.99C152.04 11.96 151.79 13.75 151.21 15.3C150.67 16.76 149.82 18.02 148.69 19.03C147.3 20.29 145.52 21.15 143.41 21.59C142.37 21.8 141.26 21.91 140.11 21.91C139.12 21.91 138.09 21.83 137.06 21.67Z" id="aqCg1Dffq"></path><path d="M153.81 3.23C153.02 3.5 152.58 3.65 152.49 3.68C152.14 3.81 151.85 3.91 151.6 4.01C151.18 4.16 150.88 4.28 150.46 4.39C149.6 3.62 148.52 3.17 147.32 3.1C146.2 3.03 145.07 3.31 144.14 3.88C143.71 4.15 143.33 4.46 143.02 4.83C143.02 6.51 143.02 19.98 143.02 21.66C143.15 21.64 143.28 21.62 143.41 21.59C145.52 21.15 147.3 20.29 148.69 19.03C149.82 18.02 150.67 16.76 151.21 15.3C151.79 13.75 152.04 11.96 151.94 9.99C151.91 9.47 152.05 8.97 152.34 8.59C153.47 7.07 153.56 6.94 153.62 6.84C153.64 6.82 153.65 6.8 153.7 6.74C153.76 6.66 154.03 6.28 154.53 5.6C153.69 5.64 153.22 5.66 153.13 5.67C153.07 5.67 153.01 5.67 152.95 5.68C152.95 5.68 153.24 4.86 153.81 3.23Z" id="e13rcbOwvN"></path><path d="M157.98 17.25C156.68 18.57 156.68 20.7 157.98 22.02C159.3 23.32 161.43 23.32 162.75 22.02C164.06 20.7 164.06 18.57 162.75 17.25C161.43 15.94 159.3 15.94 157.98 17.25Z" id="a4GQ2GjbV"></path><path d="M171.78 23C171.38 23 168.15 23 167.74 23C167.77 22.77 167.78 22.56 167.78 22.33C167.78 19.54 166.65 17.02 164.82 15.18C162.98 13.35 160.46 12.22 157.67 12.22C157.44 12.22 157.23 12.23 157 12.26C157 11.85 157 8.62 157 8.22C157.23 8.2 157.44 8.18 157.67 8.18C161.58 8.18 165.11 9.77 167.67 12.33C170.23 14.89 171.82 18.42 171.82 22.33C171.82 22.56 171.8 22.77 171.78 23Z" id="d2pwRegJD0"></path><path d="M179.96 23C179.55 23 176.24 23 175.83 23C175.84 22.77 175.87 22.56 175.87 22.33C175.87 17.31 173.83 12.76 170.53 9.47C167.24 6.17 162.69 4.13 157.67 4.13C157.44 4.13 157.23 4.16 157 4.17C157 3.76 157 0.45 157 0.04C157.23 0.03 157.44 0 157.67 0C163.82 0 169.37 2.58 173.4 6.6C177.42 10.63 180 16.18 180 22.33C180 22.56 179.97 22.77 179.96 23Z" id="a9HhYCJF4U"></path><path d="M162.75 17.25C164.06 18.57 164.06 20.7 162.75 22.02C161.43 23.32 159.3 23.32 157.98 22.02C158.94 21.06 161.8 18.2 162.75 17.25Z" id="bhsITS3CP"></path><path d="M167.67 12.33C170.23 14.89 171.82 18.42 171.82 22.33C171.82 22.56 171.8 22.77 171.78 23C171.38 23 168.15 23 167.74 23C167.77 22.77 167.78 22.56 167.78 22.33C167.78 19.54 166.65 17.02 164.82 15.18C165.39 14.61 167.1 12.9 167.67 12.33Z" id="egGJVQk2l"></path><path d="M179.96 23C179.55 23 176.24 23 175.83 23C175.84 22.77 175.87 22.56 175.87 22.33C175.87 17.31 173.83 12.76 170.53 9.47C170.82 9.18 173.11 6.89 173.4 6.6C177.42 10.63 180 16.18 180 22.33C180 22.56 179.97 22.77 179.96 23Z" id="a1qGdEVX88"></path><path d="M83.08 13.52L81.25 15.48L81.74 18.91L87.13 14.87L83.08 13.52Z" id="e3NvIRUgPb"></path><path d="M73.61 9.48L79.04 12.17L83.08 13.52L92.52 21.61L96.61 1.39L73.61 9.48Z" id="a27nUJkmJp"></path><path d="M79.04 12.17L81.74 18.91L83.08 13.52L92.52 5.44L79.04 12.17Z" id="i2aUueE5dX"></path><path d="M44.27 4.27C44.27 2.08 44.27 0.86 44.27 0.62C43.91 0.57 42.66 0.46 41.21 0.46C38.19 0.46 36.11 2.36 36.11 5.86C36.11 6.07 36.11 7.15 36.11 9.08L32.77 9.08L32.77 13.17L36.11 13.17L36.11 23.46L40.21 23.46L40.21 13.17L43.41 13.17L43.92 9.08L40.21 9.08C40.21 7.39 40.21 6.45 40.21 6.26C40.21 5.08 40.53 4.27 42.17 4.27C42.45 4.27 43.15 4.27 44.27 4.27Z" id="evNPEU2CS"></path><path d="M58.07 146.39C58.08 146.38 67.19 138.8 68.13 136.23C68.13 136.23 68.14 136.23 68.14 136.23C68.61 135.29 68.14 134.6 65.88 134.6C65.14 134.6 59.16 134.6 58.42 134.6C56.51 134.6 55.64 135.19 55.17 135.85C55.17 135.85 51.37 141.33 45.99 144.88C44.25 145.91 43.45 146.24 42.5 146.24C42.03 146.24 41.31 145.91 41.31 144.97C41.31 144.1 41.31 137.1 41.31 136.23C41.31 135.1 40.78 134.6 39.2 134.6C38.03 134.6 28.64 134.6 27.46 134.6C26.27 134.6 25.56 135.13 25.56 135.62C25.56 136.68 28.25 136.93 28.53 139.92C28.53 140.57 28.53 145.78 28.53 146.43C28.53 147.85 28.1 148.11 27.15 148.11C24.61 148.11 18.45 142.61 14.79 136.32C14.06 135.1 13.34 134.6 11.42 134.6C10.67 134.6 4.7 134.6 3.95 134.6C1.82 134.6 1.39 135.2 1.39 135.86C1.39 137.02 3.93 142.83 13.19 150.51C19.37 155.75 28.07 158.58 35.98 158.58C40.73 158.58 41.31 157.95 41.31 156.87C41.31 151.86 40.88 151.39 43.27 151.39C44.37 151.39 46.27 151.72 50.71 154.25C55.79 157.24 56.62 158.58 59.46 158.58C60.21 158.58 66.18 158.58 66.93 158.58C69.06 158.58 70.13 157.95 69.51 156.71C68.09 154.09 58.5 148.71 58.07 148.35C56.96 147.51 57.28 147.14 58.07 146.39Z" id="kEpfnfvKs"></path><path d="M19.09 12.05C19.09 12.04 22.16 7.79 22.48 6.35C22.48 6.35 22.48 6.35 22.48 6.35C22.64 5.82 22.48 5.44 21.72 5.44C21.47 5.44 19.46 5.44 19.2 5.44C18.56 5.44 18.27 5.77 18.11 6.14C18.11 6.14 16.83 9.21 15.02 11.2C14.43 11.78 14.16 11.96 13.84 11.96C13.69 11.96 13.44 11.78 13.44 11.25C13.44 10.76 13.44 6.84 13.44 6.35C13.44 5.72 13.26 5.44 12.73 5.44C12.34 5.44 9.18 5.44 8.78 5.44C8.38 5.44 8.14 5.73 8.14 6C8.14 6.6 9.05 6.74 9.14 8.42C9.14 8.78 9.14 11.7 9.14 12.07C9.14 12.87 8.99 13.01 8.67 13.01C7.82 13.01 5.74 9.93 4.51 6.4C4.27 5.71 4.02 5.44 3.38 5.44C3.13 5.44 1.11 5.44 0.86 5.44C0.14 5.44 0 5.77 0 6.14C0 6.79 0.85 10.05 3.98 14.36C6.05 17.29 8.98 18.89 11.65 18.89C13.25 18.89 13.44 18.53 13.44 17.92C13.44 15.12 13.3 14.85 14.1 14.85C14.47 14.85 15.11 15.04 16.61 16.45C18.32 18.13 18.6 18.89 19.56 18.89C19.81 18.89 21.82 18.89 22.07 18.89C22.79 18.89 23.15 18.53 22.94 17.83C22.46 16.37 19.23 13.35 19.09 13.15C18.71 12.68 18.82 12.47 19.09 12.05Z" id="eyLReXCGZ"></path></defs><g><g><g><use xlink:href="#a154mWCmwT" opacity="1" fill="#000000" fill-opacity="1"></use><g><use xlink:href="#a154mWCmwT" opacity="1" fill-opacity="0" stroke="#000000" stroke-width="1" stroke-opacity="0"></use></g></g><g><use xlink:href="#b3yDUQJcK0" opacity="1" fill="#000000" fill-opacity="1"></use><g><use xlink:href="#b3yDUQJcK0" opacity="1" fill-opacity="0" stroke="#000000" stroke-width="1" stroke-opacity="0"></use></g></g><g><use xlink:href="#bhq0Bug15" opacity="1" fill="#000000" fill-opacity="1"></use><g><use xlink:href="#bhq0Bug15" opacity="1" fill-opacity="0" stroke="#000000" stroke-width="1" stroke-opacity="0"></use></g></g><g><use xlink:href="#f4UwnXgmc8" opacity="1" fill="#000000" fill-opacity="1"></use><g><use xlink:href="#f4UwnXgmc8" opacity="1" fill-opacity="0" stroke="#000000" stroke-width="1" stroke-opacity="0"></use></g></g><g><use xlink:href="#c1I9lkzQck" opacity="1" fill="#212121" fill-opacity="1"></use><g><use xlink:href="#c1I9lkzQck" opacity="1" fill-opacity="0" stroke="#000000" stroke-width="1" stroke-opacity="0"></use></g></g><g><use xlink:href="#bwriJ8kGh" opacity="1" fill="#000000" fill-opacity="1"></use><g><use xlink:href="#bwriJ8kGh" opacity="1" fill-opacity="0" stroke="#000000" stroke-width="1" stroke-opacity="0"></use></g></g><g><use xlink:href="#hEHlFC8uL" opacity="1" fill="#000000" fill-opacity="1"></use><g><use xlink:href="#hEHlFC8uL" opacity="1" fill-opacity="0" stroke="#000000" stroke-width="1" stroke-opacity="0"></use></g></g><g><use xlink:href="#f1AjcoEomB" opacity="1" fill="#8f9098" fill-opacity="1"></use><g><use xlink:href="#f1AjcoEomB" opacity="1" fill-opacity="0" stroke="#000000" stroke-width="1" stroke-opacity="0"></use></g></g><g><use xlink:href="#b24hQnWvEa" opacity="1" fill="#212121" fill-opacity="1"></use><g><use xlink:href="#b24hQnWvEa" opacity="1" fill-opacity="0" stroke="#000000" stroke-width="1" stroke-opacity="0"></use></g></g><g><use xlink:href="#d5zI3PbUS" opacity="1" fill="#212121" fill-opacity="1"></use><g><use xlink:href="#d5zI3PbUS" opacity="1" fill-opacity="0" stroke="#000000" stroke-width="1" stroke-opacity="0"></use></g></g><g><use xlink:href="#akv9gQHAh" opacity="1" fill="#212121" fill-opacity="1"></use><g><use xlink:href="#akv9gQHAh" opacity="1" fill-opacity="0" stroke="#000000" stroke-width="1" stroke-opacity="0"></use></g></g><g><use xlink:href="#asPpEtEkw" opacity="1" fill="#000000" fill-opacity="1"></use><g><use xlink:href="#asPpEtEkw" opacity="1" fill-opacity="0" stroke="#000000" stroke-width="1" stroke-opacity="0"></use></g></g><g><use xlink:href="#b2UNTGw8T" opacity="1" fill="#000000" fill-opacity="1"></use><g><use xlink:href="#b2UNTGw8T" opacity="1" fill-opacity="0" stroke="#000000" stroke-width="1" stroke-opacity="0"></use></g></g><g><use xlink:href="#bb8zwuje0" opacity="1" fill="#000000" fill-opacity="1"></use><g><use xlink:href="#bb8zwuje0" opacity="1" fill-opacity="0" stroke="#000000" stroke-width="1" stroke-opacity="0"></use></g></g><g><use xlink:href="#e2hpkpaShI" opacity="1" fill="#8f9098" fill-opacity="1"></use><g><use xlink:href="#e2hpkpaShI" opacity="1" fill-opacity="0" stroke="#000000" stroke-width="1" stroke-opacity="0"></use></g></g><g><use xlink:href="#b3a2G0zIFD" opacity="1" fill="#000000" fill-opacity="1"></use><g><use xlink:href="#b3a2G0zIFD" opacity="1" fill-opacity="0" stroke="#000000" stroke-width="1" stroke-opacity="0"></use></g></g><g><use xlink:href="#a2fcP58c9" opacity="1" fill="#000000" fill-opacity="1"></use><g><use xlink:href="#a2fcP58c9" opacity="1" fill-opacity="0" stroke="#000000" stroke-width="1" stroke-opacity="0"></use></g></g><g><use xlink:href="#a1xGDBWODS" opacity="1" fill="#000000" fill-opacity="1"></use><g><use xlink:href="#a1xGDBWODS" opacity="1" fill-opacity="0" stroke="#000000" stroke-width="1" stroke-opacity="0"></use></g></g><g><use xlink:href="#e6yevRJD9" opacity="1" fill="#000000" fill-opacity="1"></use><g><use xlink:href="#e6yevRJD9" opacity="1" fill-opacity="0" stroke="#000000" stroke-width="1" stroke-opacity="0"></use></g></g><g><use xlink:href="#a2LJnKxEP6" opacity="1" fill="#76e2f8" fill-opacity="1"></use><g><use xlink:href="#a2LJnKxEP6" opacity="1" fill-opacity="0" stroke="#000000" stroke-width="1" stroke-opacity="0"></use></g></g><g><use xlink:href="#d3aLrtajlD" opacity="1" fill="#25d9f8" fill-opacity="1"></use><g><use xlink:href="#d3aLrtajlD" opacity="1" fill-opacity="0" stroke="#000000" stroke-width="1" stroke-opacity="0"></use></g></g><g><use xlink:href="#dy2GSoQIa" opacity="1" fill="#e2e2e7" fill-opacity="1"></use><g><use xlink:href="#dy2GSoQIa" opacity="1" fill-opacity="0" stroke="#000000" stroke-width="1" stroke-opacity="0"></use></g></g><g><use xlink:href="#a7BHB1mMJ2" opacity="1" fill="#000000" fill-opacity="1"></use><g><use xlink:href="#a7BHB1mMJ2" opacity="1" fill-opacity="0" stroke="#000000" stroke-width="1" stroke-opacity="0"></use></g></g><g><use xlink:href="#c1pAQBMkw" opacity="1" fill="#000000" fill-opacity="1"></use><g><use xlink:href="#c1pAQBMkw" opacity="1" fill-opacity="0" stroke="#000000" stroke-width="1" stroke-opacity="0"></use></g></g><g><use xlink:href="#f3coRZQoRb" opacity="1" fill="#000000" fill-opacity="1"></use><g><use xlink:href="#f3coRZQoRb" opacity="1" fill-opacity="0" stroke="#000000" stroke-width="1" stroke-opacity="0"></use></g></g><g><use xlink:href="#esDuQXjwz" opacity="1" fill="#000000" fill-opacity="1"></use><g><use xlink:href="#esDuQXjwz" opacity="1" fill-opacity="0" stroke="#000000" stroke-width="1" stroke-opacity="0"></use></g></g><g><use xlink:href="#a1yqvh5btD" opacity="1" fill="#000000" fill-opacity="1"></use><g><use xlink:href="#a1yqvh5btD" opacity="1" fill-opacity="0" stroke="#000000" stroke-width="1" stroke-opacity="0"></use></g></g><g><use xlink:href="#e50n078n4i" opacity="1" fill="#000000" fill-opacity="1"></use><g><use xlink:href="#e50n078n4i" opacity="1" fill-opacity="0" stroke="#000000" stroke-width="1" stroke-opacity="0"></use></g></g><g><use xlink:href="#g4EIVu95vA" opacity="1" fill="#000000" fill-opacity="1"></use><g><use xlink:href="#g4EIVu95vA" opacity="1" fill-opacity="0" stroke="#000000" stroke-width="1" stroke-opacity="0"></use></g></g><g><use xlink:href="#enzYWsNNN" opacity="1" fill="#000000" fill-opacity="1"></use><g><use xlink:href="#enzYWsNNN" opacity="1" fill-opacity="0" stroke="#000000" stroke-width="1" stroke-opacity="0"></use></g></g><g><use xlink:href="#m2rlqlvrm" opacity="1" fill="#000000" fill-opacity="1"></use><g><use xlink:href="#m2rlqlvrm" opacity="1" fill-opacity="0" stroke="#000000" stroke-width="1" stroke-opacity="0"></use></g></g><g><use xlink:href="#j1fnuxkVFn" opacity="1" fill="#ff9f00" fill-opacity="1"></use><g><use xlink:href="#j1fnuxkVFn" opacity="1" fill-opacity="0" stroke="#000000" stroke-width="1" stroke-opacity="0"></use></g></g><g><use xlink:href="#bkxZCYyKy" opacity="1" fill="#ff9f00" fill-opacity="1"></use><g><use xlink:href="#bkxZCYyKy" opacity="1" fill-opacity="0" stroke="#000000" stroke-width="1" stroke-opacity="0"></use></g></g><g><use xlink:href="#c9hbxlR1G3" opacity="1" fill="#ff9f00" fill-opacity="1"></use><g><use xlink:href="#c9hbxlR1G3" opacity="1" fill-opacity="0" stroke="#000000" stroke-width="1" stroke-opacity="0"></use></g></g><g><use xlink:href="#d1TXoR1yTO" opacity="1" fill="#ff7816" fill-opacity="1"></use><g><use xlink:href="#d1TXoR1yTO" opacity="1" fill-opacity="0" stroke="#000000" stroke-width="1" stroke-opacity="0"></use></g></g><g><use xlink:href="#axaHPb6H" opacity="1" fill="#ff7816" fill-opacity="1"></use><g><use xlink:href="#axaHPb6H" opacity="1" fill-opacity="0" stroke="#000000" stroke-width="1" stroke-opacity="0"></use></g></g><g><use xlink:href="#h1oQdSsYny" opacity="1" fill="#ff7816" fill-opacity="1"></use><g><use xlink:href="#h1oQdSsYny" opacity="1" fill-opacity="0" stroke="#000000" stroke-width="1" stroke-opacity="0"></use></g></g><g><use xlink:href="#a5cJDxX2sS" opacity="1" fill="#ff5b5b" fill-opacity="1"></use><g><use xlink:href="#a5cJDxX2sS" opacity="1" fill-opacity="0" stroke="#000000" stroke-width="1" stroke-opacity="0"></use></g></g><g><use xlink:href="#akeKlDqKn" opacity="1" fill="#ff3997" fill-opacity="1"></use><g><use xlink:href="#akeKlDqKn" opacity="1" fill-opacity="0" stroke="#000000" stroke-width="1" stroke-opacity="0"></use></g></g><g><use xlink:href="#g4ND1Bpt8e" opacity="1" fill="#e2e2e7" fill-opacity="1"></use><g><use xlink:href="#g4ND1Bpt8e" opacity="1" fill-opacity="0" stroke="#000000" stroke-width="1" stroke-opacity="0"></use></g></g><g><use xlink:href="#ewmm32VnY" opacity="1" fill="#ececf1" fill-opacity="1"></use><g><use xlink:href="#ewmm32VnY" opacity="1" fill-opacity="0" stroke="#000000" stroke-width="1" stroke-opacity="0"></use></g></g><g><use xlink:href="#b1tyqKRYEb" opacity="1" fill="#00c0f1" fill-opacity="1"></use><g><use xlink:href="#b1tyqKRYEb" opacity="1" fill-opacity="0" stroke="#000000" stroke-width="1" stroke-opacity="0"></use></g></g><g><use xlink:href="#eIuZF193k" opacity="1" fill="#000000" fill-opacity="1"></use><g><use xlink:href="#eIuZF193k" opacity="1" fill-opacity="0" stroke="#000000" stroke-width="1" stroke-opacity="0"></use></g></g><g><use xlink:href="#a47UaaDRD" opacity="1" fill="#000000" fill-opacity="1"></use><g><use xlink:href="#a47UaaDRD" opacity="1" fill-opacity="0" stroke="#000000" stroke-width="1" stroke-opacity="0"></use></g></g><g><use xlink:href="#d59iUdo3w" opacity="1" fill="#000000" fill-opacity="1"></use><g><use xlink:href="#d59iUdo3w" opacity="1" fill-opacity="0" stroke="#000000" stroke-width="1" stroke-opacity="0"></use></g></g><g><use xlink:href="#a4olB9ucdg" opacity="1" fill="#000000" fill-opacity="1"></use><g><use xlink:href="#a4olB9ucdg" opacity="1" fill-opacity="0" stroke="#000000" stroke-width="1" stroke-opacity="0"></use></g></g><g><use xlink:href="#a26k2FE9f9" opacity="1" fill="#000000" fill-opacity="1"></use><g><use xlink:href="#a26k2FE9f9" opacity="1" fill-opacity="0" stroke="#000000" stroke-width="1" stroke-opacity="0"></use></g></g><g><use xlink:href="#b1tpv0MY3" opacity="1" fill="#000000" fill-opacity="1"></use><g><use xlink:href="#b1tpv0MY3" opacity="1" fill-opacity="0" stroke="#000000" stroke-width="1" stroke-opacity="0"></use></g></g><g><use xlink:href="#g529Y1Y5O" opacity="1" fill="#ffffff" fill-opacity="1"></use><g><use xlink:href="#g529Y1Y5O" opacity="1" fill-opacity="0" stroke="#000000" stroke-width="1" stroke-opacity="0"></use></g></g><g><use xlink:href="#c1LY9sDd42" opacity="1" fill="#ffffff" fill-opacity="1"></use><g><use xlink:href="#c1LY9sDd42" opacity="1" fill-opacity="0" stroke="#000000" stroke-width="1" stroke-opacity="0"></use></g></g><g><use xlink:href="#a1LZbN2Uf" opacity="1" fill="#ffffff" fill-opacity="1"></use><g><use xlink:href="#a1LZbN2Uf" opacity="1" fill-opacity="0" stroke="#000000" stroke-width="1" stroke-opacity="0"></use></g></g><g><use xlink:href="#a1jYR8zTin" opacity="1" fill="#8f9098" fill-opacity="1"></use><g><use xlink:href="#a1jYR8zTin" opacity="1" fill-opacity="0" stroke="#000000" stroke-width="1" stroke-opacity="0"></use></g></g><g><use xlink:href="#a4mOwdpE7L" opacity="1" fill="#ffffff" fill-opacity="1"></use><g><use xlink:href="#a4mOwdpE7L" opacity="1" fill-opacity="0" stroke="#000000" stroke-width="1" stroke-opacity="0"></use></g></g><g><use xlink:href="#haLo9AT0Q" opacity="1" fill="#000000" fill-opacity="1"></use><g><use xlink:href="#haLo9AT0Q" opacity="1" fill-opacity="0" stroke="#000000" stroke-width="1" stroke-opacity="0"></use></g></g><g><use xlink:href="#b8u9F72xA2" opacity="1" fill="#ffffff" fill-opacity="1"></use><g><use xlink:href="#b8u9F72xA2" opacity="1" fill-opacity="0" stroke="#000000" stroke-width="1" stroke-opacity="0"></use></g></g><g><use xlink:href="#bx4ME2ln2" opacity="1" fill="#000000" fill-opacity="1"></use><g><use xlink:href="#bx4ME2ln2" opacity="1" fill-opacity="0" stroke="#000000" stroke-width="1" stroke-opacity="0"></use></g></g><g><use xlink:href="#b6FDDNknes" opacity="1" fill="#000000" fill-opacity="1"></use><g><use xlink:href="#b6FDDNknes" opacity="1" fill-opacity="0" stroke="#000000" stroke-width="1" stroke-opacity="0"></use></g></g><g><use xlink:href="#aqCg1Dffq" opacity="1" fill="#ffffff" fill-opacity="1"></use><g><use xlink:href="#aqCg1Dffq" opacity="1" fill-opacity="0" stroke="#000000" stroke-width="1" stroke-opacity="0"></use></g></g><g><use xlink:href="#e13rcbOwvN" opacity="1" fill="#ffffff" fill-opacity="1"></use><g><use xlink:href="#e13rcbOwvN" opacity="1" fill-opacity="0" stroke="#000000" stroke-width="1" stroke-opacity="0"></use></g></g><g><use xlink:href="#a4GQ2GjbV" opacity="1" fill="#ffffff" fill-opacity="1"></use><g><use xlink:href="#a4GQ2GjbV" opacity="1" fill-opacity="0" stroke="#000000" stroke-width="1" stroke-opacity="0"></use></g></g><g><use xlink:href="#d2pwRegJD0" opacity="1" fill="#ffffff" fill-opacity="1"></use><g><use xlink:href="#d2pwRegJD0" opacity="1" fill-opacity="0" stroke="#000000" stroke-width="1" stroke-opacity="0"></use></g></g><g><use xlink:href="#a9HhYCJF4U" opacity="1" fill="#ffffff" fill-opacity="1"></use><g><use xlink:href="#a9HhYCJF4U" opacity="1" fill-opacity="0" stroke="#000000" stroke-width="1" stroke-opacity="0"></use></g></g><g><use xlink:href="#bhsITS3CP" opacity="1" fill="#ffffff" fill-opacity="1"></use><g><use xlink:href="#bhsITS3CP" opacity="1" fill-opacity="0" stroke="#000000" stroke-width="1" stroke-opacity="0"></use></g></g><g><use xlink:href="#egGJVQk2l" opacity="1" fill="#ffffff" fill-opacity="1"></use><g><use xlink:href="#egGJVQk2l" opacity="1" fill-opacity="0" stroke="#000000" stroke-width="1" stroke-opacity="0"></use></g></g><g><use xlink:href="#a1qGdEVX88" opacity="1" fill="#ffffff" fill-opacity="1"></use><g><use xlink:href="#a1qGdEVX88" opacity="1" fill-opacity="0" stroke="#000000" stroke-width="1" stroke-opacity="0"></use></g></g><g><use xlink:href="#e3NvIRUgPb" opacity="1" fill="#000000" fill-opacity="1"></use><g><use xlink:href="#e3NvIRUgPb" opacity="1" fill-opacity="0" stroke="#000000" stroke-width="1" stroke-opacity="0"></use></g></g><g><use xlink:href="#a27nUJkmJp" opacity="1" fill="#ffffff" fill-opacity="1"></use><g><use xlink:href="#a27nUJkmJp" opacity="1" fill-opacity="0" stroke="#000000" stroke-width="1" stroke-opacity="0"></use></g></g><g><use xlink:href="#i2aUueE5dX" opacity="1" fill="#000000" fill-opacity="1"></use><g><use xlink:href="#i2aUueE5dX" opacity="1" fill-opacity="0" stroke="#000000" stroke-width="1" stroke-opacity="0"></use></g></g><g><use xlink:href="#evNPEU2CS" opacity="1" fill="#ffffff" fill-opacity="1"></use><g><use xlink:href="#evNPEU2CS" opacity="1" fill-opacity="0" stroke="#000000" stroke-width="1" stroke-opacity="0"></use></g></g><g><use xlink:href="#kEpfnfvKs" opacity="1" fill="#4b729f" fill-opacity="1"></use><g><use xlink:href="#kEpfnfvKs" opacity="1" fill-opacity="0" stroke="#000000" stroke-width="1" stroke-opacity="0"></use></g></g><g><use xlink:href="#eyLReXCGZ" opacity="1" fill="#ffffff" fill-opacity="1"></use><g><use xlink:href="#eyLReXCGZ" opacity="1" fill-opacity="0" stroke="#000000" stroke-width="1" stroke-opacity="0"></use></g></g></g></g></svg>